<?xml version="1.0" encoding="UTF-8"?>
<!-- Created with Inkscape (http://www.inkscape.org/) -->
<svg width="48" height="48" version="1.1" viewBox="0 0 12.7 12.7" xml:space="preserve" xmlns="http://www.w3.org/2000/svg" xmlns:xlink="http://www.w3.org/1999/xlink"><defs><linearGradient id="linearGradient21"><stop offset=".5"/><stop stop-color="#333" stop-opacity="0" offset="1"/></linearGradient><linearGradient id="linearGradient18"><stop stop-color="#782121" offset="0"/><stop stop-color="#ffd5d5" offset="1"/></linearGradient><linearGradient id="linearGradient8"><stop offset="0"/><stop stop-color="#f55" stop-opacity="0" offset="1"/></linearGradient><linearGradient id="linearGradient7"><stop stop-color="#ff8080" offset="0"/><stop stop-color="#ffd5d5" offset="1"/></linearGradient><linearGradient id="linearGradient3"><stop stop-color="#4d4d4d" offset="0"/><stop stop-color="#4d4d4d" stop-opacity="0" offset="1"/></linearGradient><linearGradient id="linearGradient1"><stop stop-color="#ff0" offset="0"/><stop stop-color="#0ff" offset="1"/></linearGradient><radialGradient id="radialGradient2" cx="4.6258" cy="5.7249" r=".28197" gradientTransform="matrix(1.4883 .10428 -.10251 1.4629 -3.4137 -5.5256)" gradientUnits="userSpaceOnUse" xlink:href="#linearGradient1"/><linearGradient id="linearGradient4" x1="4.5902" x2="4.597" y1="5.473" y2="6.0429" gradientTransform="matrix(2.4658 0 0 2.4658 -8.5325 -10.785)" gradientUnits="userSpaceOnUse" xlink:href="#linearGradient3"/><radialGradient id="radialGradient8" cx="5.0612" cy="5.2894" r="1.2425" gradientTransform="matrix(4.8277 1.9309 -.91011 2.2755 -14.828 -19.152)" gradientUnits="userSpaceOnUse" xlink:href="#linearGradient7"/><radialGradient id="radialGradient10" cx="4.1125" cy="5.5822" r=".65112" gradientTransform="matrix(4.5307 1.7116 -.89883 2.3793 -11.821 -17.297)" gradientUnits="userSpaceOnUse" xlink:href="#linearGradient8"/><linearGradient id="linearGradient16" x1="6.1112" x2="6.0796" y1="9.0868" y2="8.3151" gradientTransform="matrix(2.4658 0 0 2.4658 -8.5223 -10.785)" gradientUnits="userSpaceOnUse"><stop stop-color="#f55" offset="0"/><stop stop-color="#800000" stop-opacity="0" offset="1"/></linearGradient><radialGradient id="radialGradient8-1" cx="4.6052" cy="6.6572" r="1.2425" gradientTransform="matrix(1.2476 .060729 -.052034 1.069 -1.5509 -4.0488)" gradientUnits="userSpaceOnUse" xlink:href="#linearGradient18"/><linearGradient id="linearGradient23" x1="6.0676" x2="6.0816" y1="7.2705" y2="7.9311" gradientTransform="matrix(2.4658 0 0 2.4658 -8.4791 -10.54)" gradientUnits="userSpaceOnUse" xlink:href="#linearGradient21"/><radialGradient id="radialGradient8-5" cx="5.0612" cy="5.2894" r="1.2425" gradientTransform="matrix(-1.9578 .78307 .36909 .9228 14.649 -3.4174)" gradientUnits="userSpaceOnUse" xlink:href="#linearGradient7"/><radialGradient id="radialGradient8-1-8" cx="4.6052" cy="6.6572" r="1.2425" gradientTransform="matrix(-.50597 .024628 .021102 .43352 9.2648 2.7077)" gradientUnits="userSpaceOnUse" xlink:href="#linearGradient18"/><radialGradient id="radialGradient10-2" cx="4.1125" cy="5.5822" r=".65112" gradientTransform="matrix(-1.8374 .69412 .36451 .9649 13.43 -2.6652)" gradientUnits="userSpaceOnUse" xlink:href="#linearGradient8"/><radialGradient id="radialGradient2-6" cx="4.6258" cy="5.7249" r=".28197" gradientTransform="matrix(-.60357 .042291 .04157 .59328 10.02 2.1088)" gradientUnits="userSpaceOnUse" xlink:href="#linearGradient1"/><linearGradient id="linearGradient28" x1="4.5902" x2="4.597" y1="5.473" y2="6.0429" gradientTransform="matrix(-1 0 0 1 12.096 -.024039)" gradientUnits="userSpaceOnUse" xlink:href="#linearGradient3"/><linearGradient id="linearGradient29" x1="6.0676" x2="6.0816" y1="7.2705" y2="7.9311" gradientTransform="matrix(2.4658 0 0 2.4658 -8.4561 -7.358)" gradientUnits="userSpaceOnUse" xlink:href="#linearGradient21"/></defs><g stroke-width="3.6987"><path d="m0.93553 2.645 0.70972-0.28408c1.7476 0.41359 2.4226-0.1689 3.4336 0.13946 0.21549 0.37838 0.023079 0.24675 0.4334 1.1285l-0.87711 0.52466-0.98535 0.27364c-0.53631 0.06223-1.3636 0.05539-1.7029-0.054766z" fill="url(#radialGradient8)" style="paint-order:fill markers stroke"/><path d="m0.3363 1.6361 1.34-0.19796c1.5004 0.14562 2.3647 0.72477 3.4026 1.0622 0.24071 0.39286 0.31856 0.70677 0.45703 1.1639-1.153 1.0237-2.4596 0.76629-2.9768 0.77425-1.1444 0.14629-2.0345-2.247-2.2228-2.8025z" fill="url(#radialGradient8-1)" style="paint-order:fill markers stroke"/><path d="m0.9813 3.1167c0.038393-0.2104 0.22369 0.92003 0.92998 1.2545 0.47845 0.13285 0.36033 0.11691 1.2346 0.1223l0.84177-0.026034c0.73213-0.031372 2.4881-0.19557 0.7689-0.7655 0.012227-0.0051482-0.30794-1.3938-1.0841-1.7804-0.21088-0.10504-0.5697-0.17679-0.79189-0.20663-1.1575-0.15548-2.6687-0.12015-2.671-0.12026l0.45297 0.97928z" fill="url(#radialGradient10)" style="paint-order:fill markers stroke"/><path d="m1.1856 3.1136s0.57519 0.92537 1.6172 1.0025c0.83259 0.030715 1.6723-0.4738 1.6723-0.4738-0.16716-0.034323-0.6844-0.74624-1.5594-0.81988-0.83984-0.07068-1.4908 0.27455-1.7301 0.29117zm0-3e-7s0.57519 0.92537 1.6172 1.0025c0.83259 0.030714 1.6723-0.4738 1.6723-0.4738-0.16716-0.034323-0.6844-0.74624-1.5594-0.81988-0.83984-0.07068-1.4908 0.27455-1.7301 0.29117z" fill="#fff" style="paint-order:fill markers stroke"/><path d="m4.1393 10.276c0.29564 0.29177 0.55334 0.58828 0.89719 0.87402 0 0 0.40557 0.33843 1.4777 0.29554 0.80587 0.06463 1.4457-0.23279 1.6223-0.45288 0.31506-0.27111 0.43981-0.46208 0.63906-0.68442 0 0-0.77291-0.41703-0.84002-0.44334-0.30156-0.11822-0.30095-0.17869-0.63672-0.22028-0.4082-0.050565-0.94423 0.023521-1.0686 0.0017724-0.19963-0.034912-0.74417-0.02631-1.1505 0.19892z" fill="#faa" style="paint-order:fill markers stroke"/><path d="m4.1393 10.276c0.29564 0.29177 0.55334 0.58828 0.89719 0.87402 0 0 0.40557 0.33843 1.4777 0.29554 0.80587 0.06463 1.4457-0.23279 1.6223-0.45288 0.31506-0.27111 0.43981-0.46208 0.63906-0.68442 0 0-0.77291-0.41703-0.84002-0.44334-0.30156-0.11822-0.30095-0.17869-0.63672-0.22028-0.4082-0.050565-0.94423 0.023521-1.0686 0.0017724-0.19963-0.034912-0.74417-0.02631-1.1505 0.19892z" fill="url(#linearGradient16)" style="paint-order:fill markers stroke"/><path d="m2.2968 2.7568s-0.47479 1.0757 0.56719 1.1529c0.83259 0.030714 0.70898-0.94017 0.70898-0.94017-0.40648-0.083463-0.86969-0.24092-1.2762-0.21269z" fill="url(#radialGradient2)" style="paint-order:fill markers stroke"/><path d="m1.1856 3.1136s0.57519 0.92537 1.6172 1.0025c0.83259 0.030715 1.6723-0.4738 1.6723-0.4738-0.16716-0.034323-0.6844-0.74624-1.5594-0.81988-0.83984-0.07068-1.4908 0.27455-1.7301 0.29117zm0-3e-7s0.57519 0.92537 1.6172 1.0025c0.83259 0.030714 1.6723-0.4738 1.6723-0.4738-0.16716-0.034323-0.6844-0.74624-1.5594-0.81988-0.83984-0.07068-1.4908 0.27455-1.7301 0.29117z" fill="url(#linearGradient4)" style="paint-order:fill markers stroke"/></g><g transform="matrix(2.4658 0 0 2.4658 -8.3493 -10.742)"><g stroke-width="1.5"><path d="m8.2565 5.4223-0.21547-0.086268c-0.70873 0.16773-0.68275-0.2566-1.0928-0.13154-0.087392 0.15345-0.19746 0.2737-0.36386 0.63131l0.19448 0.15283 0.37687 0.15645c0.2175 0.025237 0.55299 0.022463 0.69059-0.02221z" fill="url(#radialGradient8-5)" style="paint-order:fill markers stroke"/><path d="m8.2845 5.4348 0.14904-0.47716c-0.59893-0.026891-1.0943 0.13418-1.5155 0.27386-0.15502 0.1996-0.29254 0.42943-0.34869 0.61482 0.46757 0.41514 0.81895 0.30007 1.0287 0.3033 0.46409 0.059327 0.61011-0.48957 0.68647-0.71484z" fill="url(#radialGradient8-1-8)" style="paint-order:fill markers stroke"/><path d="m8.2379 5.6136c-0.01557-0.085326-0.090714 0.37311-0.37715 0.50876-0.19403 0.053876-0.14613 0.047413-0.5007 0.049596l-0.34137-0.010558c-0.29691-0.012723-1.009-0.079313-0.31182-0.31044-0.00496-0.00209 0.14142-0.35025 0.4562-0.50705 0.085521-0.0426 0.2145-0.00555 0.30461-0.017652 0.46943-0.063053 0.75979 0.083566 0.76076 0.083522l0.056079 0.02507z" fill="url(#radialGradient10-2)" style="paint-order:fill markers stroke"/><path d="m8.155 5.6123s-0.23327 0.37528-0.65583 0.40656c-0.33765 0.012456-0.6782-0.19214-0.6782-0.19214 0.067791-0.01392 0.27755-0.30263 0.63241-0.3325 0.34059-0.028664 0.60457 0.11134 0.70162 0.11808zm0-1e-7s-0.23327 0.37528-0.65583 0.40656c-0.33765 0.012456-0.6782-0.19214-0.6782-0.19214 0.067791-0.01392 0.27755-0.30263 0.63241-0.3325 0.34059-0.028664 0.60457 0.11134 0.70162 0.11808z" fill="#fff" style="paint-order:fill markers stroke"/><path d="m7.7044 5.4677s0.19255 0.43625-0.23002 0.46754c-0.33765 0.012456-0.28752-0.38128-0.28752-0.38128 0.16485-0.033848 0.3527-0.097705 0.51754-0.086257z" fill="url(#radialGradient2-6)" style="paint-order:fill markers stroke"/><path d="m8.155 5.6123s-0.23327 0.37528-0.65583 0.40656c-0.33765 0.012456-0.6782-0.19214-0.6782-0.19214 0.067791-0.01392 0.27755-0.30263 0.63241-0.3325 0.34059-0.028664 0.60457 0.11134 0.70162 0.11808zm0-1e-7s-0.23327 0.37528-0.65583 0.40656c-0.33765 0.012456-0.6782-0.19214-0.6782-0.19214 0.067791-0.01392 0.27755-0.30263 0.63241-0.3325 0.34059-0.028664 0.60457 0.11134 0.70162 0.11808z" fill="url(#linearGradient28)" style="paint-order:fill markers stroke"/></g><circle transform="scale(-1,1)" cx="-7.455" cy="5.6712" r=".11718" fill="#28220b" stroke-width="3.5896" style="paint-order:fill markers stroke"/><path d="m7.4753 5.5905 0.061536-0.047127 0.070158 0.076005-0.065168 0.041073z" fill="#fff" stroke-width="1.5" style="paint-order:fill markers stroke"/><path d="m8.4839 4.9509-0.32901-0.17185-0.22795-0.0051c-0.41288 0.057357-1.1235 0.23585-1.2304 0.34386l-0.11112 0.20735 1.0533-0.27192 0.56253-0.094655z" stroke-width="1.5" style="paint-order:fill markers stroke"/></g><path d="m5.6831 11.446c-0.10647-0.0159-0.2926-0.08071-0.44344-0.15441-0.22977-0.11227-0.30311-0.17119-0.63178-0.50754-0.3412-0.34916-0.38656-0.38489-0.55048-0.43355-0.1093-0.03245-0.17864-0.06993-0.17864-0.09657 0-0.05222 0.18472-0.09565 0.387-0.09099 0.12263 0.0028 0.21584-0.03471 0.67285-0.27097 0.62066-0.32086 0.752-0.36277 0.97173-0.31005 0.19388 0.046512 0.81536 0.049159 0.92944 0.00397 0.259-0.086842 0.5375 0.00268 0.75128 0.086949 0.089354 0.035219 0.35446 0.16171 0.58912 0.2811 0.35204 0.1791 0.44453 0.21416 0.52886 0.20047 0.1006-0.01632 0.33969 0.04615 0.399 0.10425 0.047665 0.0467-0.043817 0.08734-0.1978 0.08786-0.12815 4.36e-4 -0.14671 0.01166-0.29053 0.17587-0.41657 0.47561-0.68911 0.68995-1.0932 0.85972-0.18795 0.07897-0.20756 0.08079-0.92599 0.08598-0.40368 0.0029-0.81654-7e-3 -0.91746-0.02209zm0.83391-0.23422s0.16993 0.05831 0.55272 0.03356c0.62768-0.04059 0.71348-0.07852 1.1549-0.43222 0.28715-0.23008 0.27066-0.24651 0.41016-0.40006l-0.19141-0.01716c-0.10528-0.0094-0.43913-0.03605-0.74189-0.05915l-0.55048-0.042-0.32961 0.10887c-0.23783 0.07856-0.32839 0.12202-0.32524 0.15609 0.01053 0.11364-0.010186 0.13104-0.044205 0.03711-0.034294-0.0947-0.058306-0.1088-0.34172-0.20074-0.28835-0.09353-0.31972-0.09759-0.58008-0.07506-0.15138 0.0131-0.46578 0.03708-0.69866 0.05329-0.23288 0.0162-0.43851 0.01213-0.44815 0.02177-0.062329 0.06233 0.3446 0.4345 0.62509 0.60436 0.10394 0.06295 0.21502 0.12077 0.43546 0.20539 0.48351 0.1856 1.0731 6e-3 1.0731 6e-3zm0.34773-0.9081c0.14065-0.04064 0.29013-0.06835 0.33218-0.06159 0.18764 0.03017 1.2795 0.06955 1.373 0.04951 0.099669-0.02138 0.088158-0.04755-0.46-0.30296-0.24383-0.11361-0.643-0.26721-0.78228-0.30849-0.19516-0.057841-0.75875 0.076852-0.81227 0.15004-0.033336 0.045588-0.060889 0.055208-0.084864-0.0068057-0.020417-0.052803-0.37158-0.12377-0.57439-0.12462-0.23642-9.977e-4 -0.26615-0.056951-0.87635 0.24648-0.30276 0.15056-0.58488 0.28491-0.62693 0.29856-0.070264 0.02281-0.066551 0.02614 0.045874 0.04106 0.06728 0.0089 0.39069 0.0058 0.71868-0.0071 0.57539-0.02249 0.90212-0.0021 1.0747 0.06701 0.12949 0.05186 0.41025 0.03469 0.67268-0.04113zm-0.41823-1.5735c-0.016201-0.014992-0.078337-0.042868-0.1381-0.061934-0.059769-0.019061-0.18001-0.080623-0.2672-0.1368-0.14277-0.091983-0.18708-0.10384-0.44581-0.11927-0.32621-0.019456-0.41915-0.056897-0.5781-0.23284-0.14795-0.16376-0.18635-0.31993-0.1657-0.67392 0.016768-0.2876 0.01694-0.28807 0.14127-0.41241 0.14595-0.14595 0.16055-0.1061 0.050752 0.13852-0.1674 0.37294-0.12161 0.66642 0.14558 0.9331 0.16792 0.16759 0.30281 0.2246 0.53214 0.2249 0.142 1.864e-4 0.15798-0.016816 0.076456-0.081295-0.139-0.10996-0.356-0.19903-0.44265-0.1817-0.073372 0.014672-0.087453 0.00838-0.079166-0.03534 0.015017-0.079219 0.20797-0.085523 0.353-0.011536 0.0651 0.033212 0.24153 0.15227 0.39207 0.26457 0.31236 0.23303 0.36506 0.26503 0.39201 0.23807 0.010628-0.010628 0.019307-0.11004 0.019307-0.22092v-0.2016l-0.20642-0.072986c-0.49549-0.17519-0.55784-0.24782-0.55801-0.65007-8.55e-5 -0.19744 0.016595-0.30854 0.065529-0.43641 0.075844-0.19819 0.11534-0.2071 0.050587-0.011423-0.063838 0.19291-0.07076 0.60064-0.012555 0.73994 0.040194 0.096195 0.081484 0.12925 0.27055 0.21661 0.12272 0.056699 0.26074 0.11253 0.30672 0.12407 0.071285 0.017902 0.083604 0.011485 0.083604-0.043497 0-0.035464 0.01376-0.064479 0.030581-0.064479 0.016816 0 0.030581 0.029324 0.030581 0.065163 0 0.057392 0.012773 0.063096 0.10702 0.047799 0.14513-0.023546 0.48313-0.19318 0.57073-0.28643 0.059624-0.063465 0.072743-0.11421 0.080286-0.31054 0.0078181-0.20313-0.0053223-0.27566-0.097623-0.5396-0.058652-0.16771-0.10219-0.30937-0.096747-0.31481 0.00545-0.00545 0.058034 0.11113 0.11687 0.25905 0.11782 0.29618 0.16205 0.59575 0.11648 0.78884-0.03877 0.1643-0.15284 0.25383-0.52693 0.41356l-0.30833 0.13166 0.019184 0.18365c0.010553 0.10101 0.025006 0.18946 0.032111 0.19656 0.031417 0.031417 0.16321-0.043884 0.44879-0.25642 0.37251-0.27723 0.54033-0.36397 0.65063-0.33628 0.051698 0.01297 0.080226 0.040994 0.080226 0.078793 0 0.049852-0.015929 0.056075-0.10603 0.041452-0.084876-0.013785-0.13626 0.00221-0.2576 0.080058-0.083365 0.053494-0.16924 0.11855-0.19083 0.14457-0.03504 0.04222-0.016398 0.045041 0.1735 0.026234 0.25929-0.025679 0.44566-0.12784 0.5788-0.31727 0.085921-0.12225 0.092693-0.15124 0.092693-0.39684 0-0.22948-0.011688-0.28876-0.087285-0.44272-0.048007-0.097768-0.081673-0.18337-0.074815-0.19023 0.00686-0.00686 0.061551 0.02244 0.12154 0.065131 0.099159 0.070552 0.1126 0.098237 0.14791 0.30468 0.064534 0.37727-0.00217 0.6537-0.20394 0.8452-0.12794 0.12143-0.26844 0.16862-0.57621 0.19355-0.19376 0.015682-0.2997 0.039551-0.35786 0.080589-0.04544 0.032064-0.16242 0.095265-0.25995 0.14045-0.097531 0.045185-0.18473 0.086181-0.19376 0.0911-0.00905 0.00492-0.029683-0.00332-0.045872-0.018322zm0.55452-2.2138c-0.01371-0.046365-0.01366-0.13582 1.084e-4 -0.19878l0.025026-0.11448 0.010849 0.099392c0.00597 0.054665 0.00592 0.14412-1.086e-4 0.19878l-0.010976 0.099394zm-1.0962-0.95283c-0.012631-0.53678-0.022932-1.1664-0.022932-1.3991 0-0.23274-0.00737-0.42316-0.016373-0.42316-0.00901 0-0.053728 0.022217-0.099392 0.049361l-0.083025 0.049361 0.084098-0.078475c0.046257-0.043162 0.084103-0.10712 0.084103-0.14212 0-0.097531-0.12509-0.32251-0.35761-0.64319-0.24756-0.34143-0.27454-0.38275-0.23319-0.3572 0.047065 0.029087 0.48378 0.66109 0.5725 0.82853 0.043632 0.082337 0.089682 0.16491 0.10233 0.18349 0.012644 0.018593 0.016126 0.6806 0.00771 1.4712l-0.015278 1.4374zm-1.0169-1.0243c0.097574-0.10675 0.44344-0.41458 0.44344-0.39467 0 0.00651-0.12042 0.12055-0.26759 0.25344-0.14718 0.13289-0.22631 0.19644-0.17585 0.14124zm-2.6759-0.05581c-0.16032-0.029393-0.51118-0.21852-0.66697-0.35952-0.16101-0.14573-0.26147-0.31191-0.40088-0.66316-0.088744-0.2236-0.13827-0.26517-0.38227-0.32082-0.2171-0.04952-0.28486-0.12158-0.082125-0.087331 0.068281 0.011536 0.12713 0.00726 0.13779-0.00996 0.010233-0.016546-0.10145-0.14138-0.24818-0.2774-0.14672-0.13602-0.24751-0.24731-0.22398-0.24731 0.023548 0 0.15559 0.11009 0.29345 0.24466 0.20607 0.20114 0.26781 0.24466 0.34712 0.24466 0.10967 0 0.30858-0.074796 0.30858-0.11604 0-0.038184 0.49084-0.18154 0.74926-0.21884 0.2724-0.039313 0.76503-0.03967 1.0342-7.502e-4 0.23635 0.034172 0.57714 0.16872 0.79516 0.31393 0.12998 0.086576 0.86358 0.90174 0.83618 0.92915-0.00584 0.00584-0.072831-0.012427-0.14885-0.040598-0.10199-0.037801-0.1347-0.064689-0.1248-0.10257 0.009204-0.035186-0.088256-0.14258-0.30979-0.34136-0.33182-0.29775-0.46031-0.38819-0.49797-0.35053-0.011842 0.011842-0.030857 0.11186-0.042289 0.2223-0.026954 0.26042-0.13393 0.41868-0.36497 0.53993-0.14981 0.078623-0.1924 0.086911-0.39966 0.077782-0.19727-0.0086796-0.25133-0.023623-0.36127-0.099819-0.19547-0.13546-0.27941-0.30131-0.28168-0.55657-0.00103-0.11557 0.00766-0.24798 0.019332-0.29423 0.019825-0.078572 0.01482-0.084098-0.076103-0.084098-0.10959 0-0.49432 0.12248-0.67619 0.21526-0.071745 0.036602-0.12 0.083113-0.12 0.11566 0 0.084523 0.28118 0.37971 0.51178 0.53727 0.57396 0.39217 1.3047 0.44702 2.0225 0.15182 0.33213-0.13659 0.39014-0.11716 0.077137 0.025834-0.4207 0.19219-0.54444 0.21606-1.0478 0.20206-0.39507-0.010991-0.46985-0.021725-0.63941-0.09179-0.32539-0.13445-0.53157-0.2742-0.79201-0.53683-0.13761-0.13877-0.2652-0.2523-0.28354-0.2523-0.043216 0-0.015684 0.10933 0.095718 0.38004 0.16894 0.41054 0.38138 0.61564 0.80189 0.77416 0.079543 0.029985 0.29283 0.054904 0.58403 0.068233l0.45873 0.021009-0.41286 0.00105c-0.22707 5.801e-4 -0.44726-0.0052509-0.48931-0.012969zm0.98243-0.684c0.21823-0.10932 0.33208-0.31877 0.33243-0.61159 1.201e-4 -0.098895-0.016866-0.15595-0.057372-0.1926-0.068925-0.062376-0.32096-0.1007-0.80529-0.12245l-0.35823-0.016077-0.031523 0.1135c-0.049585 0.17854-0.038911 0.46648 0.0217 0.58535 0.15145 0.29701 0.567 0.40983 0.89828 0.24387zm7.3311 0.67343c0.55932-0.072549 0.89952-0.29139 1.1136-0.71634 0.07822-0.15525 0.18446-0.47536 0.16443-0.4954-6e-3 -0.00604-0.1535 0.12227-0.32771 0.28513-0.33821 0.31618-0.57217 0.4536-0.93026 0.54643-0.21306 0.05523-0.84439 0.066624-1.0551 0.019036-0.20009-0.045189-0.80889-0.30385-0.72517-0.30811 0.013242-6.736e-4 0.14745 0.046419 0.29823 0.10465 0.40779 0.15749 0.48876 0.17303 0.89929 0.17264 0.4441-4.229e-4 0.58712-0.030147 0.93443-0.1942 0.21274-0.10049 0.30576-0.16904 0.51225-0.37748 0.13877-0.14008 0.2523-0.27679 0.2523-0.3038 0-0.084852-0.60568-0.32051-0.82376-0.32051-0.06297 0-0.06486 0.00912-0.04571 0.22172 0.02458 0.27326-0.01782 0.44519-0.14577 0.59091-0.13654 0.15551-0.29471 0.22716-0.50145 0.22716-0.23215 0-0.38616-0.050202-0.52894-0.17241-0.13926-0.11919-0.20537-0.26753-0.23467-0.52655-0.011689-0.10336-0.030552-0.18792-0.041904-0.18792-0.12512 0-0.90808 0.71437-0.83371 0.76068 0.027339 0.017014-0.00456 0.041841-0.10125 0.078766-0.2492 0.095168-0.23209 0.062815 0.25499-0.48216 0.40968-0.45838 0.53055-0.54221 0.9577-0.66422 0.28863-0.082445 0.89718-0.11292 1.2523-0.062706 0.34929 0.049385 0.70278 0.14755 0.77689 0.21575 0.06532 0.060097 0.25854 0.12286 0.37913 0.12314 0.04032 9.37e-5 0.13321-0.048916 0.20643-0.10891 0.07321-0.059997 0.13312-0.095051 0.13312-0.077896 0 0.017163-0.05666 0.076564-0.1259 0.13202l-0.1259 0.10083 0.29768 0.032352-0.18349 0.038687c-0.27674 0.058369-0.30511 0.076894-0.36655 0.23934-0.18532 0.49002-0.40324 0.7868-0.70417 0.95897-0.17629 0.10086-0.5043 0.18432-0.70304 0.17888-0.09607-0.00263-0.08069-0.00875 0.07167-0.028511zm-0.05138-0.69829c0.18589-0.12737 0.24818-0.25061 0.2639-0.52203 0.01329-0.22974 0.01024-0.2442-0.06949-0.32388l-0.0834-0.083407-0.38676 0.019949c-0.48863 0.025199-0.67758 0.069889-0.72996 0.17265-0.074229 0.14564 0.014597 0.48921 0.16897 0.65359 0.12932 0.13771 0.23829 0.17381 0.49758 0.16484 0.18619-0.00643 0.2527-0.022464 0.33916-0.081705zm-2.922 0.27239c-0.060827-0.06733-0.11018-0.13958-0.10967-0.16056 5.115e-4 -0.020984 0.016077-0.010628 0.034612 0.023031 0.018519 0.033641 0.075851 0.10589 0.1274 0.16056 0.051547 0.054665 0.085739 0.099392 0.075987 0.099392-0.00974 0-0.0675-0.055087-0.12833-0.12242zm-2.1267-0.048621c0.022242-0.026793 0.05717-0.12656 0.077637-0.22172 0.035841-0.16664 0.037303-0.1685 0.03966-0.050682 0.00223 0.11158-0.087966 0.32111-0.13824 0.32111-0.010722 0-0.0013-0.021922 0.020935-0.04871zm1.7778-0.20028c-0.055371-0.035456-0.094007-0.071129-0.085863-0.079275 0.014918-0.014918 0.20183 0.10693 0.20183 0.13156 0 0.020418-0.00826 0.016694-0.11597-0.052286zm0.22746-0.072126c0.00991-0.06728 0.086393-0.32643 0.16996-0.57588 0.08357-0.24946 0.14517-0.46033 0.13689-0.46862-0.01699-0.016989-0.30386 0.36359-0.48328 0.64119-0.065204 0.10088-0.1185 0.17097-0.11844 0.15575 1.795e-4 -0.043478 0.10942-0.21313 0.38211-0.59345 0.1387-0.19343 0.30877-0.46517 0.37794-0.60385 0.17193-0.34472 0.26482-0.486 0.36099-0.549 0.074998-0.049142 0.36723-0.13004 2.0135-0.55743 0.70967-0.18424 1.1262-0.24239 1.3878-0.19375 0.22252 0.041382 0.365 0.10713 0.71186 0.32849 0.22082 0.14092 0.26195 0.17947 0.24809 0.23248-0.01261 0.048328-0.03208 0.058744-0.08123 0.043489-0.13838-0.042969-0.84864-0.053755-1.0821-0.016422-0.25372 0.040556-1.235 0.285-2.637 0.65691-0.70836 0.1879-0.88363 0.24483-0.93586 0.30396-0.063717 0.07213-0.40932 1.0565-0.41022 1.1685-2.576e-4 0.032041-0.013636 0.078899-0.029717 0.10413-0.019999 0.031355-0.023548 0.00716-0.011218-0.076456zm2.5491-1.8876 1.3303-0.34016 1.1621-0.03536-0.14313-0.099393c-0.07871-0.054665-0.15036-0.099393-0.1592-0.099393-0.0088 0-0.06362-0.03226-0.12172-0.071694-0.34666-0.23525-1.0136-0.17976-2.3092 0.19213-0.22918 0.065786-0.61624 0.17048-0.86014 0.23266-0.24389 0.062176-0.48057 0.13201-0.52596 0.15519-0.094397 0.048205-0.20262 0.18327-0.29626 0.36974-0.11285 0.22473-0.1041 0.22895 0.2641 0.12725 0.18082-0.04994 0.9274-0.24388 1.6591-0.43097zm-5.4146 1.5901c-0.49141-0.60873-0.7387-0.82953-1.0616-0.94791-0.15199-0.055711-0.26221-0.066058-0.82785-0.077712-0.83356-0.017162-1.158 0.018592-1.4882 0.16405-0.13458 0.059291-0.26189 0.11528-0.28292 0.12442-0.021034 0.00914-0.038228 0.00197-0.038228-0.015954 0-0.049171 0.25328-0.1875 0.46747-0.25531 0.2697-0.085381 0.96952-0.12495 1.5954-0.090212 0.46644 0.02589 0.51733 0.034678 0.7024 0.12128 0.10974 0.051356 0.27095 0.15964 0.35823 0.24063 0.21847 0.20272 0.87001 1.0188 0.81338 1.0188-0.00567 0-0.11282-0.12696-0.23809-0.28213zm3.7209 0.060413c0.4498-0.62347 0.67369-0.84964 1.0188-1.0292l0.24848-0.12928 0.93956 0.010976c0.8794 0.010287 0.95115 0.015312 1.1206 0.078584 0.20196 0.07541 0.45887 0.21744 0.43553 0.24077-0.0083 0.00833-0.14359-0.037607-0.30058-0.10209l-0.28542-0.11723-1.9364-0.01916-0.16334 0.081993c-0.30845 0.15485-0.48002 0.31343-0.91639 0.84698-0.2656 0.32475-0.34459 0.39234-0.16082 0.13762zm-2.892-0.21056c-0.092033-0.27188-0.28491-0.74808-0.31532-0.77848-0.046546-0.046545-2.4326-0.67434-3.3103-0.87096-0.39373-0.088206-0.46011-0.09469-0.82572-0.080658-0.24397 0.0093702-0.46043 0.034916-0.56029 0.066141-0.089495 0.027985-0.17653 0.046279-0.19342 0.040649-0.01689-0.0056216 0.11139-0.12359 0.28505-0.26213 0.40057-0.31957 0.62936-0.40409 1.0938-0.40409 0.36051 0 0.62876 0.047314 1.378 0.24305 0.31117 0.081294 0.73949 0.18961 0.95181 0.2407 0.21232 0.051092 0.47709 0.13729 0.58838 0.19156 0.32123 0.15663 0.58516 0.46517 0.67773 0.79228 0.026232 0.092706 0.11781 0.37884 0.20351 0.63586 0.085694 0.25702 0.15012 0.47299 0.14317 0.47994-0.00696 0.00696-0.059329-0.12529-0.11639-0.29386zm-0.42978-0.97786c0-0.068474-0.19613-0.3994-0.27709-0.46752-0.050842-0.042781-0.22494-0.10833-0.44599-0.1679-0.19942-0.053751-0.63095-0.17237-0.95894-0.2636-0.99495-0.27674-1.2103-0.32284-1.5903-0.34037-0.26654-0.012304-0.38783-0.0049316-0.50093 0.030406-0.15818 0.049435-0.63061 0.32074-0.63061 0.36214 0 0.013463 0.24262 0.024486 0.53914 0.024486h0.53914l1.5787 0.41583c0.86827 0.22871 1.5844 0.42138 1.5914 0.42815 0.028522 0.027566 0.15546 0.00992 0.15546-0.021625z" stroke-width="2.4658"/><circle cx="2.9118" cy="3.2587" r=".28894" fill="#28220b" stroke-width="8.8515" style="paint-order:fill markers stroke"/><path d="m2.9838 3.0742 0.15174-0.11621 0.173 0.18742-0.16069 0.10128z" fill="#fff" stroke-width="3.6987" style="paint-order:fill markers stroke"/><path d="m0.37479 1.4826 0.81129-0.42375 0.56209-0.012576c1.0181 0.14143 2.7703 0.58157 3.034 0.84789l0.274 0.51129-2.5974-0.67051-1.3871-0.2334z" stroke-width="3.6987" style="paint-order:fill markers stroke"/><path d="m4.9755 8.018s0.2997 0.27557 0.36086 0.30616c0.15332 0.050429 0.65724 0.088386 0.65724 0.088386s0.078351 0.2088 0.463 0.20088c0.18463-0.00379 0.3806-0.15688 0.5876-0.19772 0.39198-0.077338 0.74893-0.069086 0.6194-0.10874l0.35191-0.17852s-0.16061 0.90696-1.4398 0.97127c-1.0943 0.096004-1.3508-0.35148-1.6003-1.0817z" fill="url(#linearGradient23)" style="paint-order:fill markers stroke"/><path d="m4.9985 11.2s0.16718 0.13286 0.49339 0.34694c0.3522 0.1684 1.1142 0.19358 1.7732 0.01596 0.42994-0.11587 0.41785-0.08852 0.7734-0.25245 0 0-0.16061 0.90696-1.4398 0.97127-1.0943 0.09601-1.3508-0.35148-1.6002-1.0817z" fill="url(#linearGradient29)" style="paint-order:fill markers stroke"/></svg>
