<?xml version="1.0" encoding="UTF-8" standalone="no"?>
<!-- Created with Inkscape (http://www.inkscape.org/) -->

<svg
   width="48"
   height="48"
   viewBox="0 0 12.700001 12.700001"
   version="1.1"
   id="svg1"
   xml:space="preserve"
   inkscape:version="1.4.2 (f4327f4, 2025-05-13)"
   sodipodi:docname="dimpfavicon.svg"
   xmlns:inkscape="http://www.inkscape.org/namespaces/inkscape"
   xmlns:sodipodi="http://sodipodi.sourceforge.net/DTD/sodipodi-0.dtd"
   xmlns="http://www.w3.org/2000/svg"
   xmlns:svg="http://www.w3.org/2000/svg"><sodipodi:namedview
     id="namedview1"
     pagecolor="#505050"
     bordercolor="#eeeeee"
     borderopacity="1"
     inkscape:showpageshadow="0"
     inkscape:pageopacity="0"
     inkscape:pagecheckerboard="0"
     inkscape:deskcolor="#505050"
     inkscape:document-units="mm"
     inkscape:zoom="4.0668164"
     inkscape:cx="29.261218"
     inkscape:cy="17.827212"
     inkscape:window-width="1920"
     inkscape:window-height="1009"
     inkscape:window-x="-8"
     inkscape:window-y="-8"
     inkscape:window-maximized="1"
     inkscape:current-layer="svg1" /><defs
     id="defs1"><inkscape:perspective
       sodipodi:type="inkscape:persp3d"
       inkscape:vp_x="2.2498231 : 11.255953 : 1"
       inkscape:vp_y="0 : 803.25566 : 0"
       inkscape:vp_z="0.048708335 : 11.255953 : 1"
       inkscape:persp3d-origin="1.1492657 : 9.5557288 : 1"
       id="perspective13" /><inkscape:perspective
       sodipodi:type="inkscape:persp3d"
       inkscape:vp_x="9.620438 : 7.96013 : 1"
       inkscape:vp_y="0 : 999.9999 : 0"
       inkscape:vp_z="33.839961 : 7.96013 : 1"
       inkscape:persp3d-origin="21.730199 : 5.8434634 : 1"
       id="perspective1" /></defs><rect
     style="opacity:1;fill:#ffffff;stroke-width:0.643555;stroke-linejoin:bevel"
     id="rect13"
     width="12.7"
     height="12.7"
     x="0"
     y="0" /><path
     style="fill:#000000"
     d="m 4.6601806,12.592567 c 0.00853,-0.0034 0.022479,-0.0034 0.031006,0 0.00853,0.0034 0.00155,0.0063 -0.015503,0.0063 -0.017053,0 -0.02403,-0.0028 -0.015503,-0.0063 z m 1.0168478,-0.04394 c -0.042764,-0.07334 -0.381297,-0.751598 -0.3809362,-0.763219 1.604e-4,-0.0052 0.0844,0.154265 0.1871996,0.354284 0.1027995,0.20002 0.1894585,0.361121 0.1925756,0.358004 0.00312,-0.0031 -0.00606,-0.05161 -0.020399,-0.107759 -0.014336,-0.05615 -0.023833,-0.104324 -0.021104,-0.107053 0.00273,-0.0027 0.023388,0.06498 0.045909,0.150461 0.022521,0.08548 0.037993,0.158378 0.034383,0.161988 -0.00361,0.0036 -0.020543,-0.01741 -0.037628,-0.04671 z m 0.7681228,-0.01846 c 0.018767,-0.07209 0.039388,-0.114576 0.024416,-0.05031 -0.00437,0.01876 -0.011026,0.04946 -0.014791,0.06821 l -0.00684,0.03411 0.019643,-0.03411 c 0.010804,-0.01876 0.721959,-1.468342 0.72578,-1.468342 0.011939,0 -0.737383,1.512592 -0.752557,1.517652 -0.010195,0.0034 -0.00893,-0.01621 0.00435,-0.06722 z m 0.9871892,0.06202 c 0.012067,-0.0031 0.02881,-0.0029 0.037207,4.6e-4 0.0084,0.0034 -0.00148,0.006 -0.02194,0.0057 -0.020464,-2.53e-4 -0.027334,-0.003 -0.015267,-0.0062 z m -2.9240885,-0.02217 c -0.040928,-0.0086 -0.063252,-0.01612 -0.049609,-0.01667 0.013643,-5.56e-4 0.061082,0.0064 0.1054199,0.01553 0.044338,0.0091 0.066663,0.0166 0.049609,0.01667 -0.017053,6.9e-5 -0.064492,-0.0069 -0.1054199,-0.01553 z m 3.0109049,0.0098 c 0.012067,-0.0031 0.02881,-0.0029 0.037207,4.6e-4 0.0084,0.0034 -0.00148,0.006 -0.02194,0.0057 -0.020464,-2.53e-4 -0.027334,-0.003 -0.015267,-0.0062 z m 0.074414,-0.0124 c 0.012067,-0.0031 0.02881,-0.0029 0.037207,4.59e-4 0.0084,0.0034 -0.00148,0.006 -0.02194,0.0057 -0.020464,-2.53e-4 -0.027334,-0.003 -0.015267,-0.0062 z m 0.074414,-0.0124 c 0.012067,-0.0031 0.02881,-0.0029 0.037207,4.6e-4 0.0084,0.0034 -0.00148,0.006 -0.02194,0.0057 -0.020464,-2.53e-4 -0.027334,-0.003 -0.015267,-0.0062 z m -3.286621,-0.0124 c 0.012067,-0.0031 0.02881,-0.0029 0.037207,4.6e-4 0.0084,0.0034 -0.00148,0.006 -0.02194,0.0057 -0.020464,-2.53e-4 -0.027334,-0.003 -0.015267,-0.0062 z m 3.3677754,1.22e-4 c 0.00895,-0.0036 0.01965,-0.0031 0.023771,9.8e-4 0.00412,0.0041 -0.0032,0.0071 -0.016278,0.0065 -0.014448,-5.96e-4 -0.017387,-0.0035 -0.00749,-0.0075 z M 4.312915,12.530556 c 0.00853,-0.0034 0.022479,-0.0034 0.031006,0 0.00853,0.0034 0.00155,0.0063 -0.015503,0.0063 -0.017053,0 -0.02403,-0.0028 -0.015503,-0.0063 z m 3.5718749,-0.0124 c 0.00853,-0.0034 0.022479,-0.0034 0.031006,0 0.00853,0.0034 0.00155,0.0063 -0.015503,0.0063 -0.017053,0 -0.02403,-0.0028 -0.015503,-0.0063 z M 4.1152526,12.49309 c 0.00895,-0.0036 0.01965,-0.0031 0.023771,9.79e-4 0.00412,0.0041 -0.0032,0.0071 -0.016278,0.0065 -0.014448,-5.95e-4 -0.017387,-0.0035 -0.00749,-0.0075 z m 3.9191406,0 c 0.00895,-0.0036 0.01965,-0.0031 0.023771,9.79e-4 0.00412,0.0041 -0.0032,0.0071 -0.016278,0.0065 -0.014448,-5.95e-4 -0.017387,-0.0035 -0.00749,-0.0075 z m -3.9811523,-0.0124 c 0.00895,-0.0036 0.01965,-0.0031 0.023771,9.79e-4 0.00412,0.0041 -0.0032,0.0071 -0.016278,0.0065 -0.014448,-5.95e-4 -0.017387,-0.0035 -0.00749,-0.0075 z m 4.0299865,2.58e-4 c 0.00853,-0.0034 0.022479,-0.0034 0.031006,0 0.00853,0.0034 0.00155,0.0063 -0.015503,0.0063 -0.017053,0 -0.024029,-0.0028 -0.015503,-0.0063 z m -4.0927734,-0.0124 c 0.00853,-0.0034 0.022479,-0.0034 0.031006,0 0.00853,0.0034 0.00155,0.0063 -0.015503,0.0063 -0.017053,0 -0.02403,-0.0028 -0.015503,-0.0063 z m 4.1555603,-2.59e-4 c 0.00895,-0.0036 0.01965,-0.0031 0.023771,9.8e-4 0.00412,0.0041 -0.0032,0.0071 -0.016278,0.0065 -0.014448,-5.95e-4 -0.017387,-0.0035 -0.00749,-0.0075 z m -4.2043945,-0.0124 c 0.00895,-0.0036 0.01965,-0.0031 0.023771,9.79e-4 0.00412,0.0041 -0.0032,0.0071 -0.016278,0.0065 -0.014448,-5.95e-4 -0.017387,-0.0035 -0.00749,-0.0075 z m 4.3160156,-0.0124 c 0.00895,-0.0036 0.01965,-0.0031 0.023771,9.79e-4 0.00412,0.0041 -0.0032,0.0071 -0.016278,0.0065 -0.014448,-5.95e-4 -0.017387,-0.0035 -0.00749,-0.0075 z M 3.767987,12.418676 c 0.00895,-0.0036 0.01965,-0.0031 0.023771,9.79e-4 0.00412,0.0041 -0.0032,0.0071 -0.016278,0.0065 -0.014448,-5.95e-4 -0.017387,-0.0035 -0.00749,-0.0075 z m 4.6012695,0 c 0.00895,-0.0036 0.01965,-0.0031 0.023771,9.79e-4 0.00412,0.0041 -0.0032,0.0071 -0.016278,0.0065 -0.014448,-5.95e-4 -0.017387,-0.0035 -0.00749,-0.0075 z M 3.683496,12.402344 c -0.024925,-0.008 -0.026141,-0.01 -0.0062,-0.01029 0.013643,-2e-4 0.035967,0.0044 0.049609,0.01029 0.031604,0.01358 -10e-4,0.01358 -0.043409,0 z m -0.064337,-0.02088 c 0.00895,-0.0036 0.01965,-0.0031 0.023771,9.79e-4 0.00412,0.0041 -0.0032,0.0071 -0.016278,0.0065 -0.014448,-5.95e-4 -0.017387,-0.0035 -0.00749,-0.0075 z M 2.3497429,11.55979 c 0.00369,-0.006 0.083243,-0.05182 0.1767927,-0.101906 C 3.1465154,11.125967 3.6875118,10.634427 3.9408183,10.172895 3.9697943,10.1201 4.01925,10.011406 4.0507199,9.9313536 L 4.107938,9.785803 4.0993007,9.6336973 C 4.0945502,9.5500392 4.0775095,9.2989664 4.0614325,9.0757577 L 4.0322016,8.6699238 3.942614,8.5238534 C 3.7241101,8.1675884 3.6264573,7.9087444 3.4537585,7.228065 L 3.3823235,6.946511 3.3437735,6.938181 C 3.2436192,6.9165441 3.0972779,6.8083752 3.0282462,6.7049585 3.0094854,6.6768528 2.9668432,6.5924657 2.9334856,6.5174315 2.9001281,6.4423974 2.8266689,6.2944994 2.7702429,6.1887694 2.6096478,5.8878489 2.5748264,5.776104 2.5300445,5.4179518 2.5155595,5.3021044 2.4876271,5.1523683 2.466421,5.0768873 2.4340447,4.9616474 2.4276794,4.9144006 2.4220746,4.7477278 2.4158452,4.5624759 2.4168508,4.5509856 2.4429959,4.508682 2.5104639,4.3995169 2.6006981,4.4032142 2.7543405,4.521439 c 0.041201,0.031703 0.07702,0.055533 0.079599,0.052955 0.00258,-0.00258 -0.00623,-0.060373 -0.01957,-0.1284326 C 2.7115543,3.9214913 2.7136541,3.9391971 2.7070336,3.5408691 2.7031843,3.3092646 2.7061917,3.1102713 2.7149997,3.0137695 2.7673028,2.4407331 3.0040161,1.822842 3.3509863,1.353658 3.4590288,1.2075597 3.7589786,0.89975766 3.9198058,0.76994783 4.3968112,0.38493842 4.9747479,0.13240388 5.5872558,0.04134092 5.8187325,0.00692674 6.3684651,0.01033828 6.6086579,0.04767955 7.2192433,0.14260342 7.8207206,0.4109247 8.2537596,0.78156558 8.423259,0.92664117 8.6633234,1.1673435 8.7667871,1.2959563 c 0.34343,0.4269082 0.5784385,0.9813563 0.6781727,1.5999909 0.026939,0.1670987 0.038428,0.7017215 0.019105,0.8889995 -0.020597,0.199624 -0.1021727,0.6741802 -0.1323298,0.769814 -0.010967,0.03478 0.018669,0.025523 0.079417,-0.024805 0.098767,-0.081826 0.1155463,-0.089748 0.1902604,-0.089835 0.063068,-7.34e-5 0.073445,0.00376 0.1019932,0.037689 0.01748,0.020774 0.038173,0.061237 0.045984,0.089917 0.022931,0.0842 0.00614,0.2778948 -0.043463,0.5014101 -0.024561,0.1106694 -0.05299,0.2724668 -0.063177,0.3595498 C 9.6008275,5.7870685 9.5625275,5.9045603 9.382849,6.2259765 9.3504364,6.2839574 9.2914605,6.4056579 9.2517914,6.4964219 9.2121223,6.587186 9.1573064,6.6910622 9.1299783,6.7272579 9.0579906,6.8226049 8.9204112,6.9171736 8.8231854,6.9381398 l -0.038289,0.00826 -0.096266,0.3746288 c -0.1700551,0.6617882 -0.2557053,0.88136 -0.4805652,1.2319712 -0.063861,0.099574 -0.077237,0.1298878 -0.080714,0.1829105 -0.00229,0.034956 -0.015268,0.2086631 -0.028836,0.3860166 -0.034999,0.4575019 -0.03704,0.6634542 -0.00744,0.7503418 0.058412,0.1714413 0.2256933,0.4599273 0.3775609,0.6511233 0.2615031,0.329223 0.740677,0.711994 1.1987252,0.95756 0.2148563,0.115187 0.1823783,0.123442 -0.043147,0.01097 C 9.2983898,11.329415 8.9865748,11.103608 8.6893787,10.81493 8.4344809,10.567339 8.2686915,10.346818 8.128866,10.069377 8.096574,10.005307 8.067587,9.9603357 8.06445,9.969447 c -0.00781,0.022682 0.019269,0.348905 0.040603,0.489159 0.00957,0.06292 0.020369,0.133926 0.023998,0.1578 C 8.140531,10.691926 8.101786,10.564276 8.0707,10.42417 8.044588,10.30648 8.043176,10.272277 8.043051,9.7544429 8.0429443,9.3114338 8.047221,9.167145 8.065803,8.9877104 8.078389,8.8661443 8.086315,8.7643097 8.083417,8.7614113 8.080517,8.7585113 8.017201,8.8237013 7.9427114,8.9062753 7.7989941,9.0655891 7.3406314,9.5118974 7.1437499,9.6842251 6.9239537,9.8766098 6.7185627,9.9968773 6.4913914,10.066216 6.3858124,10.098442 6.3688548,10.099948 6.101953,10.100809 5.8505558,10.10162 5.8119119,10.098911 5.712024,10.073477 5.5047988,10.020711 5.297783,9.9047368 5.0697432,9.7136576 4.9028592,9.5738222 4.327721,9.0161999 4.1992581,8.8696832 4.1384521,8.8003318 4.0861772,8.7461142 4.0830917,8.7491998 c -0.00309,0.00309 0.00468,0.1244875 0.017267,0.2697822 0.028876,0.3334402 0.033296,1.175773 0.00695,1.324573 -0.042962,0.242654 -0.1250559,0.514009 -0.2072241,0.684965 -0.05392,0.112185 -0.047947,0.09143 0.024021,-0.08345 0.1015474,-0.246764 0.1492203,-0.480995 0.16338,-0.802733 L 4.0947356,9.9776874 4.0130446,10.12416 C 3.9006801,10.325625 3.8647585,10.379827 3.7444563,10.529427 3.4589199,10.8845 3.014431,11.244646 2.604441,11.453123 2.4402084,11.536633 2.3374623,11.579666 2.3497428,11.559795 Z m 4.019742,-1.508309 C 6.5665404,10.016134 6.7565103,9.9348639 6.9138748,9.8185935 7.1735258,9.6267479 7.7707856,9.0570295 7.9849685,8.796891 8.09148,8.6675263 8.252552,8.410656 8.3410961,8.228955 8.4914089,7.9204987 8.5900385,7.5954008 8.7437026,6.9019042 c 0.034763,-0.1568897 0.066619,-0.2989947 0.07079,-0.315789 0.00739,-0.029764 0.00626,-0.029489 -0.044759,0.010921 l -0.052342,0.041456 0.062311,-0.082324 C 8.830618,6.4888982 8.8511311,6.4453225 8.8918705,6.3178899 8.9637759,6.0929707 9.0460718,5.7541887 9.0844178,5.5252441 9.1026978,5.4161034 9.1316184,5.2543915 9.148686,5.1658843 9.1657535,5.077377 9.176699,4.9898678 9.1730093,4.9714194 c -0.00369,-0.018448 -0.00249,-0.03533 0.00266,-0.037515 0.015902,-0.00674 0.1369321,-0.4801012 0.157984,-0.6178886 0.010943,-0.071624 0.027567,-0.1581299 0.036942,-0.1922364 0.053398,-0.1942563 0.080122,-0.6533665 0.056607,-0.9725001 -0.020613,-0.2797536 -0.02674,-0.3225706 -0.045145,-0.315508 -0.010934,0.0042 -0.018296,-0.014084 -0.024129,-0.05991 C 9.3143529,2.4334835 9.2906267,2.3434583 9.1788883,2.0965051 9.052096,1.8162811 8.8716465,1.5175494 8.6959302,1.2969746 8.2613765,0.75148387 7.6557395,0.35354908 6.9780539,0.16824119 6.6970772,0.09532627 6.4150335,0.07616115 6.1275749,0.06201172 5.7353544,0.02668198 5.5208724,0.08047187 5.1207199,0.18437556 4.5722726,0.35086545 4.0668998,0.65530336 3.6633259,1.0623137 3.2417255,1.487504 2.995262,1.9416733 2.8297989,2.598291 2.756985,2.8872434 2.7364509,3.1075714 2.7443041,3.5156414 c 0.00631,0.3280577 0.031753,0.5992336 0.046579,0.4965167 0.00615,-0.042576 0.00838,-0.035542 0.015776,0.049609 0.056979,0.6561726 0.1837476,0.8327122 0.219687,1.0603989 0.00943,0.059727 0.1141011,0.7171308 0.14011,0.8309569 0.093532,0.3650716 0.1500151,0.5233046 0.2154991,0.6037011 0.052501,0.064458 0.05276,0.075853 7.07e-4,0.031142 -0.011979,-0.010289 -0.02465,-0.015838 -0.028157,-0.012331 -0.00713,0.00713 0.1020768,0.4921108 0.1879613,0.8347632 0.1534017,0.6120245 0.3156184,0.963756 0.630984,1.3681508 0.1569534,0.2012621 0.8211126,0.8373929 1.0603377,1.01559 0.1283437,0.095602 0.3443686,0.2047537 0.4747329,0.239869 0.1856226,0.05 0.4418999,0.05678 0.6609629,0.01748 z M 5.7608886,9.0157164 c -0.04318,-0.00645 -0.1186619,-0.03273 -0.179834,-0.06262 C 5.487873,8.9075652 5.4581287,8.8836705 5.3248388,8.7472687 5.1864697,8.605669 5.1680728,8.5911799 5.1015966,8.5714458 5.0572703,8.558287 5.0291503,8.5430866 5.0291503,8.5322845 c 0,-0.021179 0.074911,-0.038792 0.1569468,-0.036901 0.049731,0.00115 0.087533,-0.014078 0.2728677,-0.1098894 0.2517026,-0.1301218 0.3049673,-0.1471172 0.3940765,-0.1257403 0.078625,0.018862 0.3306618,0.019936 0.3769276,0.00161 0.047156,-0.018682 0.2179787,0.00109 0.3046777,0.035261 0.036237,0.014283 0.1437487,0.065582 0.2389151,0.1139962 0.1427692,0.072632 0.1802777,0.08685 0.2144746,0.081301 0.040799,-0.00662 0.1377604,0.018714 0.1618111,0.042279 0.01933,0.018939 -0.01777,0.035419 -0.080218,0.035632 -0.051971,1.778e-4 -0.059496,0.00473 -0.1178223,0.071325 C 6.78287,8.8340376 6.6723435,8.9209616 6.5084867,8.9898093 c -0.076223,0.032026 -0.084175,0.032765 -0.375528,0.034869 -0.1637109,0.00118 -0.3311426,-0.00285 -0.3720703,-0.00896 z m 0.3162597,-0.013134 c 0,-0.00951 0.00601,-0.00893 0.018948,0.0018 0.014123,0.011721 0.051646,0.013611 0.147361,0.00742 0.2545519,-0.016457 0.4027314,-0.078614 0.564218,-0.2366712 0.058647,-0.057402 0.1164481,-0.1210059 0.1284465,-0.1413421 l 0.021815,-0.036975 -0.077626,-0.00696 C 6.837617,8.5860327 6.7022265,8.5752354 6.5794433,8.5658672 l -0.2232422,-0.017033 -0.133672,0.044153 c -0.09645,0.031859 -0.1331777,0.049486 -0.131897,0.063303 0.00427,0.046085 -0.00413,0.05314 -0.017927,0.015048 C 6.0587973,8.6329333 6.0490595,8.627213 5.9341221,8.58993 5.8171838,8.551998 5.8044612,8.5503517 5.6988769,8.5594891 5.6374853,8.564802 5.5099841,8.5745278 5.415541,8.581102 5.321098,8.587672 5.2406293,8.596252 5.2367219,8.600159 c -0.025277,0.025277 0.1645965,0.2273635 0.2783474,0.2962513 0.042153,0.025528 0.1091255,0.057749 0.1488281,0.071602 0.1097371,0.03829 0.4132509,0.06368 0.4132509,0.03457 z M 6.240092,8.5524578 c 0.057039,-0.01648 0.1176594,-0.02772 0.1347126,-0.024978 0.076098,0.012237 0.5188997,0.028206 0.5567935,0.02008 0.04042,-0.00867 0.032993,-0.013559 -0.1865517,-0.1228648 C 6.61929,8.3620843 6.4904818,8.3039256 6.4588058,8.2954535 c -0.079745,-0.021328 -0.34078,1.614e-4 -0.3624827,0.029842 -0.013519,0.018488 -0.016425,0.018255 -0.034416,-0.00276 -0.014932,-0.01744 -0.045553,-0.025108 -0.1275199,-0.031936 -0.1785618,-0.014874 -0.2112888,-0.00656 -0.458752,0.1164951 -0.1227832,0.061058 -0.2371948,0.1155441 -0.2542481,0.121081 -0.028495,0.00925 -0.026989,0.0106 0.018604,0.016652 0.027285,0.00362 0.1584399,0.00233 0.291455,-0.00287 0.2333472,-0.00912 0.3658497,-8.583e-4 0.4358455,0.027174 0.052515,0.021032 0.1663729,0.01407 0.2728013,-0.01668 z m 0.835445,-0.019645 c 0.00422,-0.00682 -0.00137,-0.012402 -0.012402,-0.012402 -0.011037,0 -0.016618,0.00558 -0.012402,0.012402 0.00422,0.00682 0.0098,0.012402 0.012402,0.012402 0.00261,0 0.00819,-0.00558 0.012402,-0.012402 z M 6.0704821,7.9143485 c -0.00657,-0.00608 -0.031769,-0.017385 -0.056007,-0.025117 -0.024239,-0.00773 -0.073,-0.032696 -0.1083596,-0.055477 -0.0579,-0.037303 -0.075869,-0.04211 -0.180796,-0.04837 -0.1322905,-0.00789 -0.1699845,-0.023074 -0.2344462,-0.094426 -0.06,-0.066413 -0.075572,-0.129744 -0.0672,-0.273303 0.0068,-0.1166361 0.00687,-0.116825 0.057291,-0.1672493 0.05919,-0.05919 0.065111,-0.043028 0.020582,0.056176 -0.067887,0.1512437 -0.049318,0.2702634 0.05904,0.3784101 0.068097,0.067964 0.1228043,0.091086 0.2158053,0.091208 0.057587,7.56e-5 0.064068,-0.00682 0.031006,-0.032969 -0.056372,-0.044593 -0.1443723,-0.080715 -0.1795151,-0.073686 -0.029756,0.00595 -0.035466,0.0034 -0.032105,-0.014332 0.00609,-0.032127 0.08434,-0.034683 0.143157,-0.00468 0.026401,0.013469 0.097951,0.061752 0.1590014,0.107296 0.1266771,0.094503 0.1480467,0.1074808 0.1589787,0.096549 0.00431,-0.00431 0.00783,-0.044624 0.00783,-0.089592 V 7.68303 L 5.9810302,7.6534313 C 5.7800869,7.5823854 5.7548042,7.5529314 5.7547338,7.3897998 c -3.46e-5,-0.080072 0.00673,-0.1251264 0.026575,-0.1769835 0.030758,-0.080375 0.046777,-0.083988 0.020515,-0.00463 -0.025889,0.078234 -0.028696,0.2435863 -0.00509,0.3000757 0.0163,0.039011 0.033045,0.052417 0.1097203,0.087843 0.049767,0.022994 0.105742,0.045636 0.1243898,0.050316 0.028909,0.00726 0.033905,0.00466 0.033905,-0.01764 0,-0.014382 0.00558,-0.026149 0.012402,-0.026149 0.00682,0 0.012402,0.011892 0.012402,0.026427 0,0.023275 0.00518,0.025588 0.0434,0.019385 0.058856,-0.00955 0.1959303,-0.078344 0.2314564,-0.1161594 0.02418,-0.025738 0.0295,-0.046317 0.032559,-0.1259366 0.00317,-0.082379 -0.00216,-0.1117924 -0.03959,-0.2188299 -0.023786,-0.068012 -0.041441,-0.1254641 -0.039235,-0.1276706 0.00221,-0.00221 0.023535,0.045068 0.047397,0.1050552 0.04778,0.1201146 0.065719,0.2416031 0.047238,0.319907 -0.015725,0.066627 -0.061987,0.1029346 -0.213695,0.1677134 l -0.125043,0.053393 0.00778,0.074477 c 0.00428,0.040963 0.010141,0.076834 0.013022,0.079715 0.012741,0.012741 0.066189,-0.017797 0.1820019,-0.1039873 C 6.4279126,7.6436919 6.49597,7.6085159 6.5407031,7.6197432 c 0.020966,0.00526 0.032535,0.016625 0.032535,0.031954 0,0.020217 -0.00646,0.022741 -0.042998,0.016811 -0.034421,-0.00559 -0.05526,8.909e-4 -0.1044667,0.032467 -0.033808,0.021694 -0.068633,0.048077 -0.07739,0.058629 -0.01421,0.017122 -0.00665,0.018266 0.07036,0.010639 0.1051538,-0.010414 0.180733,-0.051843 0.2347263,-0.128666 0.034844,-0.049578 0.037591,-0.061335 0.037591,-0.160937 0,-0.093064 -0.00474,-0.1171049 -0.035398,-0.1795411 -0.019469,-0.039649 -0.033122,-0.074365 -0.030341,-0.077146 0.00278,-0.00278 0.024962,0.0091 0.049289,0.026414 0.040213,0.028612 0.045663,0.039839 0.059985,0.1235622 0.026171,0.1529989 -8.784e-4,0.2651026 -0.082707,0.342766 -0.051886,0.049245 -0.1088624,0.068383 -0.2336798,0.078493 -0.078577,0.00636 -0.12154,0.01604 -0.145127,0.032682 -0.018428,0.013003 -0.065867,0.038634 -0.1054199,0.056958 -0.039553,0.018324 -0.074914,0.03495 -0.07858,0.036945 -0.00367,0.002 -0.012038,-0.00135 -0.018603,-0.00743 z M 6.2953632,7.0165443 c -0.00556,-0.018803 -0.00554,-0.05508 4.4e-5,-0.080615 l 0.010149,-0.046427 0.0044,0.040308 c 0.00242,0.022169 0.0024,0.058446 -4.4e-5,0.080615 l -0.00445,0.040308 z M 5.8508056,6.6301307 c -0.00512,-0.2176883 -0.0093,-0.4730216 -0.0093,-0.5674072 0,-0.094386 -0.00299,-0.1716103 -0.00664,-0.1716103 -0.00365,0 -0.021789,0.00901 -0.040308,0.020018 l -0.03367,0.020018 0.034106,-0.031825 c 0.018759,-0.017504 0.034107,-0.04344 0.034107,-0.057637 0,-0.039553 -0.050728,-0.130793 -0.1450243,-0.2608417 -0.1003965,-0.1384639 -0.111337,-0.1552221 -0.094569,-0.144859 0.019087,0.011796 0.1961919,0.2681018 0.2321752,0.3360026 0.017695,0.033391 0.03637,0.066877 0.0415,0.074414 0.00513,0.00754 0.00654,0.2760137 0.00313,0.5966143 l -0.0062,0.5829101 z M 5.4384277,6.2147427 c 0.03957,-0.043291 0.1798339,-0.1681295 0.1798339,-0.1600567 0,0.00264 -0.048834,0.048889 -0.1085205,0.1027796 -0.059686,0.053891 -0.091777,0.079665 -0.071313,0.057277 z M 4.3532226,6.1921094 C 4.2882059,6.1801895 4.1459185,6.1034914 4.0827362,6.0463074 4.0174392,5.9872093 3.9766989,5.9198138 3.9201642,5.7773693 3.8841746,5.6866902 3.8640881,5.6698324 3.7651376,5.6472617 3.677096,5.6271793 3.6496134,5.5979546 3.7318326,5.6118454 c 0.027691,0.00468 0.051558,0.00295 0.055878,-0.00404 0.00415,-0.00671 -0.041143,-0.057335 -0.1006457,-0.1124962 -0.059503,-0.055161 -0.1003773,-0.1002934 -0.090832,-0.1002934 0.00955,0 0.063099,0.044648 0.1190067,0.099219 0.083569,0.081569 0.1086096,0.099219 0.1407714,0.099219 0.044477,0 0.1251405,-0.030333 0.1251405,-0.047058 0,-0.015485 0.1990574,-0.073624 0.3038574,-0.088749 0.1104695,-0.015943 0.3102505,-0.016088 0.4194203,-3.042e-4 0.095848,0.013858 0.2340542,0.068422 0.322471,0.1273123 0.052713,0.03511 0.3502196,0.3656954 0.3391054,0.3768096 -0.00237,0.00237 -0.029536,-0.00504 -0.060367,-0.016464 -0.041361,-0.01533 -0.054628,-0.026234 -0.05061,-0.041598 C 5.2587612,5.8891332 5.219237,5.8455805 5.1293957,5.7649664 4.9948265,5.644218 4.9427206,5.6075397 4.9274484,5.6228119 c -0.0048,0.0048 -0.012514,0.045365 -0.01715,0.090151 -0.010931,0.1056106 -0.054314,0.1697912 -0.1480104,0.218964 -0.060754,0.031885 -0.078027,0.035246 -0.1620791,0.031544 -0.08,-0.00352 -0.1019244,-0.00958 -0.1465117,-0.040481 -0.079272,-0.054936 -0.113312,-0.1221953 -0.1142327,-0.2257122 -4.169e-4,-0.046869 0.00311,-0.1005647 0.00784,-0.1193233 0.00804,-0.031864 0.00601,-0.034106 -0.030863,-0.034106 -0.044443,0 -0.2004668,0.049669 -0.2742245,0.087297 -0.029096,0.014844 -0.048667,0.033706 -0.048667,0.046905 0,0.034277 0.1140319,0.1539886 0.207549,0.217886 0.2327634,0.1590401 0.5291083,0.1812862 0.8202084,0.061571 0.1346913,-0.055392 0.1582169,-0.047513 0.031282,0.010477 -0.170611,0.077943 -0.2207947,0.087621 -0.4249117,0.081942 C 4.4674586,6.0454692 4.4371334,6.0411159 4.3683685,6.0127017 4.2364083,5.9581747 4.1527942,5.9015004 4.047176,5.794995 3.9913692,5.7387194 3.9396248,5.6926757 3.9321885,5.6926757 c -0.017526,0 -0.00636,0.04434 0.038818,0.1541224 0.068513,0.1664935 0.1546676,0.2496689 0.3251991,0.3139554 0.032258,0.01216 0.1187554,0.022266 0.2368506,0.027671 l 0.1860351,0.00852 -0.1674316,4.268e-4 C 4.4595727,6.197606 4.3702754,6.1952413 4.3532222,6.1921113 Z M 4.7516381,5.9147178 c 0.088503,-0.044335 0.134672,-0.1292743 0.1348161,-0.2480252 4.87e-5,-0.040106 -0.00684,-0.063245 -0.023267,-0.078108 -0.027952,-0.025296 -0.1301628,-0.040838 -0.3265795,-0.049658 l -0.1452769,-0.00652 -0.012784,0.04603 c -0.020109,0.072405 -0.01578,0.1891787 0.0088,0.2373843 0.061419,0.1204502 0.2299415,0.166202 0.3642898,0.098901 z M 7.7247218,6.1878211 C 7.951548,6.1583992 8.089514,6.069652 8.176342,5.8973144 8.208062,5.8343554 8.25115,5.704536 8.243024,5.6964095 8.240574,5.6939595 8.180771,5.7459965 8.1101223,5.8120425 7.9729642,5.9402649 7.8780827,5.9959977 7.7328612,6.0336433 c -0.086404,0.022398 -0.3424346,0.027019 -0.4278808,0.00772 -0.081146,-0.018326 -0.328039,-0.1232243 -0.2940881,-0.12495 0.00537,-2.731e-4 0.059799,0.018825 0.1209453,0.04244 0.1653772,0.063869 0.1982132,0.070172 0.3646996,0.070014 0.1801012,-1.715e-4 0.2381025,-0.012226 0.378951,-0.078755 0.086276,-0.040752 0.1240006,-0.068552 0.2077392,-0.153084 0.056276,-0.056809 0.1023194,-0.1122501 0.1023194,-0.1232025 0,-0.034411 -0.2456284,-0.1299788 -0.3340701,-0.1299788 -0.025537,0 -0.026299,0.0037 -0.018541,0.089917 0.00997,0.1108192 -0.00723,0.1805416 -0.059115,0.2396386 -0.055371,0.063064 -0.1195192,0.092124 -0.203358,0.092124 -0.094146,0 -0.1566058,-0.020359 -0.2145075,-0.069921 -0.056471,-0.048337 -0.083283,-0.1084966 -0.095167,-0.2135369 -0.00474,-0.041916 -0.01239,-0.07621 -0.016994,-0.07621 -0.050741,0 -0.3682648,0.2897093 -0.3381063,0.3084893 0.011087,0.0069 -0.00185,0.016968 -0.041061,0.031943 C 6.7635671,5.984886 6.7705059,5.971765 6.9680351,5.7507541 7.1341766,5.5648619 7.183195,5.5308646 7.3564215,5.481384 7.4734728,5.447949 7.7202651,5.435592 7.864283,5.455954 8.005934,5.475982 8.149292,5.515793 8.1793451,5.543448 8.2058301,5.56782 8.2841942,5.593273 8.333097,5.593387 8.349448,5.593425 8.38712,5.573549 8.416813,5.549218 8.446506,5.524887 8.4708,5.510671 8.4708,5.517628 c 0,0.00696 -0.022977,0.03105 -0.051059,0.05354 L 8.368682,5.61206 8.429043,5.61862 8.489404,5.62518 8.41499,5.640869 C 8.30276,5.6645399 8.2912538,5.6720524 8.2663383,5.7379331 8.1911827,5.9366574 8.1028038,6.057016 7.9807665,6.1268387 c -0.071492,0.040904 -0.2045136,0.07475 -0.2851123,0.072545 -0.038962,-0.00107 -0.032723,-0.00355 0.029068,-0.011563 z M 7.7038835,5.9046339 C 7.7792682,5.8529783 7.8045332,5.803 7.8109052,5.6929281 c 0.00539,-0.093171 0.00414,-0.099034 -0.028179,-0.1313489 l -0.033825,-0.033825 -0.1568482,0.00809 c -0.1981611,0.010219 -0.2747889,0.028343 -0.2960289,0.070016 -0.030103,0.059063 0.00592,0.1983946 0.068525,0.2650602 0.052446,0.055846 0.096637,0.070486 0.20179,0.06685 0.075509,-0.00261 0.10248,-0.00911 0.1375441,-0.033135 z m -0.392702,0.2600096 c -0.0642,-0.03038 -0.05406,-0.030602 0.031006,-6.787e-4 0.037517,0.013197 0.057051,0.024031 0.043408,0.024075 -0.013643,4.38e-5 -0.047129,-0.010484 -0.074414,-0.023396 z M 4.8245116,6.1639648 c 0.010232,-0.00661 0.024185,-0.012023 0.031006,-0.012023 0.00682,0 0.00403,0.00541 -0.0062,0.012023 -0.010232,0.00661 -0.024184,0.012023 -0.031006,0.012023 -0.00682,0 -0.00403,-0.00541 0.0062,-0.012023 z M 6.5188747,6.0151009 c -0.024668,-0.027305 -0.044682,-0.056605 -0.044474,-0.065112 2.074e-4,-0.00851 0.00652,-0.00431 0.014036,0.00934 0.00751,0.013643 0.030761,0.042943 0.051665,0.065112 0.020904,0.022169 0.034771,0.040308 0.030816,0.040308 -0.00395,0 -0.027374,-0.02234 -0.052042,-0.049645 z M 5.6564232,5.995383 c 0.00902,-0.010865 0.023185,-0.051327 0.031485,-0.089917 0.014535,-0.067578 0.015128,-0.068335 0.016084,-0.020554 9.058e-4,0.045252 -0.035674,0.1302246 -0.056061,0.1302246 -0.00435,0 -5.248e-4,-0.00889 0.00849,-0.019754 z M 6.3071213,5.953982 c -0.00392,-0.00635 -0.00146,-0.015051 0.00547,-0.019335 0.00693,-0.00428 0.012605,9.109e-4 0.012605,0.011545 0,0.021785 -0.00744,0.024993 -0.018075,0.00779 z m 0.070264,-0.03982 c -0.022455,-0.014379 -0.038124,-0.028846 -0.034821,-0.03215 0.00605,-0.00605 0.081849,0.043366 0.081849,0.053354 0,0.00828 -0.00335,0.00677 -0.047029,-0.021204 z m 0.092245,-0.02925 c 0.00402,-0.027285 0.035036,-0.1323805 0.068927,-0.2335453 0.033891,-0.1011648 0.058872,-0.1866843 0.055513,-0.1900434 -0.00689,-0.00689 -0.1232282,0.1474498 -0.1959926,0.2600305 -0.026443,0.040913 -0.048057,0.069335 -0.048032,0.063162 7.28e-5,-0.017632 0.044373,-0.086433 0.1549632,-0.2406679 0.056247,-0.078445 0.1252185,-0.1886445 0.1532704,-0.2448882 0.069725,-0.139798 0.1073978,-0.1970918 0.1463967,-0.2226448 0.030415,-0.019929 0.1489278,-0.052738 0.8165635,-0.2260618 0.2878034,-0.074716 0.456726,-0.098299 0.5628024,-0.078572 0.090243,0.016782 0.1480244,0.043446 0.288689,0.1332157 0.08955,0.057149 0.1062332,0.072783 0.1006113,0.094281 -0.00513,0.019599 -0.013014,0.023823 -0.032937,0.017637 -0.056119,-0.017426 -0.3441606,-0.0218 -0.4388561,-0.00666 -0.1028936,0.016447 -0.5008471,0.1155813 -1.0694213,0.2664048 -0.2872694,0.076203 -0.3583481,0.099288 -0.3795309,0.123268 -0.02584,0.029252 -0.1659973,0.4284749 -0.1663621,0.4738654 -1.045e-4,0.012994 -0.00553,0.031997 -0.012051,0.042229 -0.00811,0.012716 -0.00955,0.0029 -0.00455,-0.031006 z m 1.0337875,-0.7654833 0.5395019,-0.137951 0.2356445,-0.00717 0.2356446,-0.00717 -0.058045,-0.040308 c -0.031925,-0.022169 -0.060977,-0.040308 -0.064561,-0.040308 -0.00358,0 -0.025796,-0.013083 -0.04936,-0.029075 -0.1405874,-0.095405 -0.4110687,-0.072901 -0.9364869,0.077915 -0.092943,0.026679 -0.2499131,0.069137 -0.3488218,0.094352 -0.098909,0.025215 -0.1948934,0.053535 -0.2132993,0.062935 -0.038282,0.019549 -0.082173,0.074325 -0.1201474,0.1499465 -0.045766,0.091137 -0.042215,0.092848 0.1071039,0.051607 0.073329,-0.020253 0.3761011,-0.098902 0.6728272,-0.174775 z M 5.3075496,5.7642943 C 5.1082632,5.5174272 5.0079767,5.4278839 4.8770117,5.3798779 4.815375,5.3572846 4.7706755,5.3530886 4.5412825,5.3483623 c -0.3380429,-0.00696 -0.4696277,0.00754 -0.6035254,0.066531 -0.054577,0.024045 -0.1062081,0.04675 -0.1147347,0.050456 -0.00853,0.00371 -0.015503,7.948e-4 -0.015503,-0.00647 0,-0.019941 0.1027175,-0.076041 0.1895798,-0.1035405 0.1093736,-0.034626 0.3931798,-0.050673 0.6470111,-0.036585 0.1891604,0.010499 0.2097974,0.014063 0.2848549,0.049186 0.044506,0.020827 0.1098805,0.06474 0.1452767,0.097584 0.088597,0.08221 0.3528272,0.4131843 0.3298621,0.4131843 -0.0023,0 -0.045754,-0.051487 -0.096554,-0.1144165 z m 1.5089928,0.0245 C 6.9989568,5.5359501 7.0897507,5.4442293 7.2296969,5.3714212 l 0.1007711,-0.052427 0.3810306,0.00445 c 0.3566325,0.00417 0.385732,0.00621 0.4544536,0.031869 0.081903,0.030582 0.1860912,0.08818 0.1766273,0.097644 -0.00338,0.00338 -0.058233,-0.015251 -0.1218965,-0.041401 L 8.1049315,5.3640136 7.712285,5.3601325 7.3196385,5.3562514 7.2533983,5.3895031 C 7.1283097,5.4522959 7.0587296,5.5166043 6.8817612,5.7329833 6.7740494,5.8646824 6.7420154,5.8920953 6.8165424,5.7887943 Z M 5.6437293,5.7034038 C 5.606406,5.5931459 5.5281849,5.4000274 5.515855,5.3876974 5.4969788,5.3688213 4.5293185,5.114225 4.1733886,5.0344878 4.0137134,4.9987166 3.9867952,4.9960871 3.8385253,5.0017777 c -0.09894,0.0038 -0.1867251,0.01416 -0.2272202,0.026823 -0.036294,0.011349 -0.071592,0.018768 -0.07844,0.016485 -0.00685,-0.00228 0.045172,-0.05012 0.1155992,-0.1063063 C 3.8109128,4.80918 3.9036954,4.7749021 4.0920435,4.7749021 c 0.1462015,0 0.2549878,0.019188 0.5588353,0.098567 0.1261939,0.032968 0.2998934,0.076894 0.385999,0.097615 0.086105,0.02072 0.1934823,0.055678 0.238615,0.077684 0.1302732,0.063519 0.2373093,0.1886471 0.2748469,0.3213042 0.010638,0.037596 0.047777,0.1536361 0.08253,0.2578678 0.034753,0.1042316 0.060881,0.1918186 0.058062,0.1946378 -0.00282,0.00282 -0.02406,-0.050809 -0.047202,-0.1191741 z M 5.4694335,5.3068385 c 0,-0.027769 -0.07954,-0.1619743 -0.1123711,-0.1895997 C 5.3364437,5.0998893 5.2658382,5.073308 5.1761955,5.0491466 5.0953206,5.0273484 4.9203198,4.9792433 4.7873046,4.9422464 4.3838101,4.8300181 4.296459,4.811322 4.1423828,4.8042109 c -0.1080914,-0.00499 -0.1572813,-0.002 -0.203147,0.012331 -0.06415,0.020048 -0.2557398,0.1300718 -0.2557398,0.1468635 0,0.00546 0.098391,0.00993 0.2186463,0.00993 h 0.2186463 l 0.640216,0.1686388 c 0.3521188,0.092751 0.6425415,0.1708861 0.6453837,0.1736328 0.011567,0.011179 0.063045,0.00402 0.063045,-0.00877 z M 3.3553538,6.8273559 c -0.00879,-0.070313 -0.0874,-0.4009381 -0.097808,-0.4113467 -0.0032,-0.0032 -0.023161,0.00314 -0.044348,0.014093 -0.036885,0.019074 -0.039725,0.018716 -0.066865,-0.00842 C 3.1307441,6.4060903 3.0941393,6.3487036 3.0649891,6.2941532 3.0358388,6.2396028 2.9652877,6.1363695 2.9082089,6.064746 2.7816239,5.9059049 2.7396325,5.8248227 2.7318587,5.7242274 2.7215791,5.5912064 2.7966888,5.3648463 2.8675836,5.3151897 2.9013343,5.2915498 2.9093277,5.3065497 2.7358122,5.0679147 2.6054486,4.8886262 2.519057,4.7873046 2.4965507,4.7873046 c -0.00725,0 -0.015999,0.014692 -0.019432,0.032649 -0.0091,0.04758 0.013686,0.2116481 0.03661,0.2636562 l 0.019729,0.044759 0.010189,-0.037207 c 0.0056,-0.020464 0.014449,-0.065112 0.019657,-0.099219 0.00654,-0.04286 0.011989,0.035663 0.017632,0.254248 0.011681,0.4525249 0.031755,0.5490127 0.168664,0.8107024 0.069248,0.132361 0.1433277,0.2822875 0.279444,0.5655512 0.046533,0.096837 0.1263422,0.178777 0.2265721,0.2326213 0.1047155,0.056254 0.1100442,0.054773 0.099739,-0.02771 z m 5.5924925,0.012289 C 9.0733795,6.7563204 9.1272958,6.6812105 9.2236555,6.4554198 9.2469443,6.4008495 9.3154335,6.2641137 9.3758539,6.1515624 9.5510335,5.8252372 9.5858064,5.6977227 9.5883248,5.3724179 c 0.00124,-0.1607197 0.017326,-0.4299112 0.021527,-0.3603208 0.00325,0.053877 0.016875,0.1100708 0.026685,0.1100708 0.024246,0 0.070809,-0.2364461 0.057224,-0.2905757 -0.019419,-0.07737 -0.062788,-0.034816 -0.2954269,0.2898754 l -0.1204652,0.1681319 0.042382,0.04117 C 9.427136,5.434598 9.4740624,5.739196 9.4037109,5.8725097 9.3893122,5.8997948 9.3299266,5.9807201 9.271743,6.0523437 9.212849,6.1248418 9.1374848,6.2364292 9.1017297,6.3040726 9.0268205,6.44579 9.0048878,6.4636342 8.952875,6.4251795 L 8.917026,6.3986755 8.903486,6.4332485 C 8.878105,6.4980545 8.817124,6.7528679 8.809413,6.8263336 l -0.00769,0.073258 0.039938,-0.00799 C 8.863627,6.8872116 8.91141,6.8638266 8.9478454,6.8396426 Z M 3.1999016,6.3869729 C 3.220123,6.3381542 3.2107924,6.2746086 3.1688966,6.1758136 3.1502232,6.1317796 3.1338773,6.0762182 3.1325725,6.0523437 3.1285282,5.9783465 3.0599856,5.667871 3.0476938,5.667871 c -0.00697,0 -0.00817,0.036047 -0.003,0.089917 0.00736,0.076669 0.024824,0.1424675 0.073225,0.2759521 0.00495,0.013643 -0.00227,0.00527 -0.016039,-0.018604 -0.031811,-0.055161 -0.058716,-0.1377695 -0.07069,-0.217041 l -0.00937,-0.062012 -0.010106,0.068213 c -0.019366,0.1307125 0.0011,0.2084331 0.086538,0.3286621 0.043935,0.061825 0.043953,0.061906 0.00608,0.027003 C 2.9952021,6.0594007 2.9643939,5.9049056 3.0136872,5.7054109 3.0488363,5.5631595 3.0440695,5.4790955 2.9968042,5.4076728 2.9575894,5.3484152 2.9106592,5.3217172 2.8794811,5.3409291 2.8209569,5.3769916 2.7533203,5.5742986 2.7533203,5.7089606 c 0,0.090961 0.056958,0.2017157 0.1861613,0.3619866 0.05499,0.068213 0.1199161,0.1658813 0.1442803,0.217041 0.04345,0.091236 0.07381,0.1364258 0.091656,0.1364258 0.00494,0 0.015954,-0.016849 0.024484,-0.037441 z M 9.0723143,6.3175822 C 9.1266394,6.2094252 9.1505113,6.173278 9.2479482,6.0516346 9.396018,5.8667797 9.435665,5.7639689 9.4131736,5.6231788 9.3888294,5.4707901 9.3183451,5.3330077 9.2647329,5.3330077 c -0.027273,0 -0.096192,0.076106 -0.119556,0.1320249 -0.024591,0.058855 -0.021171,0.1199089 0.0138,0.2463338 0.034882,0.1261039 0.039447,0.2227208 0.013462,0.2849116 -0.019494,0.046655 -0.098911,0.1653484 -0.1495414,0.2234973 -0.017818,0.020464 0.00363,-0.016606 0.047661,-0.082379 0.1020025,-0.1523667 0.1169257,-0.21215 0.088102,-0.3529416 -0.018377,-0.089763 -0.034711,-0.1295657 -0.047503,-0.1157572 -0.01184,0.01278 -0.095449,0.4008915 -0.089629,0.4160566 0.00354,0.00922 -0.00717,0.046129 -0.023791,0.082012 -0.041901,0.09044 -0.049846,0.1558278 -0.025898,0.2131449 0.011131,0.02664 0.02624,0.044487 0.035187,0.041564 0.00862,-0.00282 0.038004,-0.04957 0.065289,-0.1038925 z M 9.0289061,6.084742 c 0,-0.00264 0.017123,-0.041399 0.038051,-0.086121 0.020928,-0.044722 0.042912,-0.1157013 0.048853,-0.157732 0.011814,-0.083578 0.024718,-0.1115952 0.024718,-0.053667 0,0.054784 -0.032911,0.1706528 -0.068319,0.2405256 -0.026942,0.053168 -0.043303,0.074701 -0.043303,0.056994 z M 9.3219877,5.1579518 C 9.5098603,4.9028707 9.6217769,4.7626584 9.6444544,4.7539562 c 0.00984,-0.00378 0.027893,0.00218 0.040114,0.013241 0.01222,0.011059 0.026538,0.020108 0.031817,0.020108 0.00528,0 0.00746,-0.046044 0.00485,-0.1023193 -0.008,-0.172283 -0.063757,-0.2411558 -0.167598,-0.2070165 -0.061927,0.020359 -0.2012761,0.1597058 -0.2439767,0.2439714 -0.035455,0.069968 -0.077728,0.2274486 -0.1190865,0.4436359 -0.014355,0.075034 -0.028803,0.1489831 -0.032107,0.164331 -0.0033,0.015348 -9.835e-4,0.027905 0.00516,0.027905 0.00614,0 0.077405,-0.089937 0.1583661,-0.1998606 z M 3.0012688,5.2864989 C 3.0010765,5.1955534 2.9083144,4.7979663 2.8697699,4.7228821 2.8374849,4.6599913 2.7284855,4.5402857 2.6749213,4.508895 2.5928157,4.460778 2.5476335,4.4556788 2.5107138,4.4903631 c -0.03888,0.036526 -0.067452,0.1317403 -0.067452,0.2247785 0,0.073343 0.00947,0.086978 0.037207,0.05356 0.00849,-0.010232 0.022364,-0.018604 0.030827,-0.018604 0.022754,0 0.1147635,0.102684 0.2172983,0.2425084 0.1719295,0.2344564 0.2538807,0.3404017 0.2633088,0.3404017 0.00521,0 0.00942,-0.020929 0.00937,-0.046509 z m 2.1078515,6.1223741 c -0.027792,-0.05528 -0.048528,-0.102506 -0.04608,-0.104954 0.00245,-0.0024 0.027875,0.04278 0.056504,0.100502 0.028628,0.05772 0.049364,0.104954 0.046079,0.104954 -0.00328,0 -0.028712,-0.04523 -0.056504,-0.100502 z m 3.3549692,0.01286 c -0.0045,-0.0073 -0.00552,-0.01589 -0.00226,-0.01914 0.00325,-0.0033 0.00922,0.0027 0.013255,0.01323 0.00839,0.02186 0.00124,0.0257 -0.010991,0.0059 z M 3.7389144,11.317139 c 0.019083,-0.03411 0.040453,-0.06759 0.04749,-0.07441 0.00704,-0.0068 -0.00282,0.0155 -0.021901,0.04961 -0.019083,0.03411 -0.040453,0.06759 -0.04749,0.07441 -0.00704,0.0068 0.00282,-0.0155 0.021901,-0.04961 z m 4.6879681,0.04258 c -0.0045,-0.0073 -0.00552,-0.01589 -0.00226,-0.01914 0.00325,-0.0033 0.00922,0.0027 0.013255,0.01323 0.00839,0.02185 0.00124,0.0257 -0.010991,0.0059 z M 8.3591795,11.23652 c -0.01392,-0.02729 -0.022518,-0.04961 -0.019108,-0.04961 0.00341,0 0.01759,0.02232 0.03151,0.04961 0.01392,0.02728 0.022518,0.04961 0.019108,0.04961 -0.00341,0 -0.01759,-0.02233 -0.03151,-0.04961 z m -3.411278,-0.162485 c -0.021009,-0.04162 -0.036151,-0.07772 -0.03365,-0.08022 0.0025,-0.0025 0.022348,0.03155 0.044104,0.07567 0.021756,0.04412 0.036899,0.08022 0.03365,0.08022 -0.00325,0 -0.023096,-0.03405 -0.044104,-0.07567 z m 3.3215482,-0.02022 C 8.2204782,10.94606 8.1604886,10.783971 8.161221,10.761394 c 2.634e-4,-0.0081 0.024507,0.04942 0.053873,0.127864 0.029367,0.07844 0.065818,0.166887 0.081002,0.196538 0.015184,0.02965 0.025252,0.05627 0.022374,0.05915 -0.00288,0.0029 -0.024937,-0.03813 -0.04902,-0.09112 z m -1.0760905,0.02591 c 0,-0.0067 0.00868,-0.02293 0.019288,-0.03617 0.018187,-0.0227 0.018445,-0.0223 0.00452,0.0069 -0.01808,0.03796 -0.023809,0.045 -0.023809,0.02924 z m 0.9496651,-0.371192 c -0.00456,-0.01818 -0.0059,-0.03544 -0.00298,-0.03836 0.00292,-0.0029 0.00905,0.0096 0.01361,0.02773 0.00456,0.01818 0.0059,0.03544 0.00298,0.03836 -0.00292,0.0029 -0.00905,-0.0096 -0.01361,-0.02773 z"
     id="path13"
     sodipodi:nodetypes="cssccsscccsccccsccsssccccccccccscccccccccccccccccccccccccccssccsscccccccccccccccccssccsscccccccccccccccccccccccccccscccccccscsscsscssccssssssssscssssssssssssssssssssccsssscsscssssssscssssssssscsscccssssscsssssscssssscsssccssssssscccsssssssssccssssscsscssssscscsssccssccscsscsscsssscscsssssssscscccscscccscsccssscsssssscsssscscssscsccsssscssscscssssssscsscssccccccsccccssccssssscsccsssscsssccsscsssssscsssssccscsssssssssscsccscccscccsscccssssssssssssscsscscsssssssssccccssccscccsssssssssscscscsscsssscsssccccscssssscsssssssssscscssscccccccsscssssscccscscssssssccssccssccccsssssscscssssssssscsssscsscssccssccsssssscsccccssssscssccssscssssscssccccsssscccccsscsssssssssssssssssssscscssssssssccsscssscscccsssscsssccscsssscccccscscsccccccscscssssscsssccccscccccccc" /></svg>
