<?xml version="1.0" encoding="UTF-8" standalone="no"?>
<svg
   width="16"
   height="16"
   viewBox="0 0 16 16"
   shape-rendering="crispEdges"
   version="1.1"
   id="svg6"
   sodipodi:docname="dimp_favicon.svg"
   inkscape:version="1.4.2 (f4327f4, 2025-05-13)"
   xmlns:inkscape="http://www.inkscape.org/namespaces/inkscape"
   xmlns:sodipodi="http://sodipodi.sourceforge.net/DTD/sodipodi-0.dtd"
   xmlns="http://www.w3.org/2000/svg"
   xmlns:svg="http://www.w3.org/2000/svg">
  <sodipodi:namedview
     id="namedview6"
     pagecolor="#505050"
     bordercolor="#eeeeee"
     borderopacity="1"
     inkscape:showpageshadow="0"
     inkscape:pageopacity="0"
     inkscape:pagecheckerboard="0"
     inkscape:deskcolor="#505050"
     inkscape:zoom="4.4580873"
     inkscape:cx="7.7387448"
     inkscape:cy="14.243777"
     inkscape:window-width="1920"
     inkscape:window-height="1009"
     inkscape:window-x="-8"
     inkscape:window-y="-8"
     inkscape:window-maximized="1"
     inkscape:current-layer="svg6" />
  <!-- base -->
  <defs
     id="defs2">
    <radialGradient
       id="g"
       cx="50%"
       cy="42%"
       r="70%">
      <stop
         offset="0%"
         stop-color="#FFD24A"
         id="stop1" />
      <stop
         offset="100%"
         stop-color="#E2A21A"
         id="stop2" />
    </radialGradient>
  </defs>
  <circle
     cx="8"
     cy="8"
     r="7"
     fill="url(#g)"
     id="circle2" />
  <path
     id="path6"
     style="fill:#ffffff;stroke-width:7;stroke-linejoin:bevel"
     d="M 6.3789156,7.8422631 C 6.7153828,9.1760854 5.9968686,9.4530217 4.6389927,9.3689049 3.6335308,9.3066192 2.8850503,8.503151 2.8850503,7.6600101 c 0,-0.8431411 -0.080595,-1.31635 0.9267939,-1.31635 1.0073894,0 2.3608428,0.6810722 2.5670714,1.498603 z"
     sodipodi:nodetypes="sssss" />
  <path
     id="path6-2"
     style="fill:#ffffff;stroke-width:7;stroke-linejoin:bevel"
     d="m 9.7174058,7.9597395 c -0.3364672,1.333822 0.3820462,1.610759 1.7399222,1.526642 1.005462,-0.062286 1.753943,-0.865754 1.753943,-1.708895 0,-0.843141 0.0806,-1.31635 -0.926794,-1.31635 -1.00739,0 -2.3608426,0.681072 -2.5670712,1.498603 z"
     sodipodi:nodetypes="sssss" />
  <!-- brows -->
  <!-- eyes (squinted) -->
  <!-- tiny nose -->
  <!-- mouth -->
  <path
     style="fill:#000000;stroke-width:0.0629761"
     d="M 7.0444381,12.606921 C 5.8367864,12.482987 5.1868828,12.242984 4.6345909,11.716988 4.3564887,11.452126 4.2375438,11.408381 4.0142342,11.488831 c -0.1306483,0.04707 -0.1726335,0.04377 -0.2046706,-0.01609 -0.042364,-0.07916 -0.01435,-0.274437 0.04905,-0.341922 0.048369,-0.05149 0.1880368,-0.132945 0.2510598,-0.146427 0.013124,-0.0028 0.066808,-0.02061 0.1192994,-0.03957 0.052493,-0.01897 0.1169139,-0.03165 0.1431596,-0.02821 0.026246,0.0035 0.1103396,0.01353 0.1868757,0.02244 0.1336063,0.01552 0.2306721,0.0714 0.2306721,0.132766 0,0.01379 -0.037368,0.04069 -0.083041,0.05977 -0.045673,0.01909 -0.100593,0.06148 -0.1220434,0.09422 -0.035392,0.05402 -0.035575,0.06475 -0.00198,0.116024 0.020361,0.03107 0.1124578,0.123547 0.2046594,0.205492 0.092203,0.08194 0.165358,0.160106 0.1625687,0.173696 -0.014088,0.06862 0.564637,0.395875 0.9373931,0.530066 0.2154325,0.07756 0.6594955,0.167383 1.0021145,0.202716 0.3174187,0.03273 1.2025785,0.03322 1.514134,7.54e-4 1.190011,-0.123715 1.9732515,-0.429726 2.5659045,-1.002494 l 0.202809,-0.196005 -0.17895,0.153085 c -0.645031,0.551801 -1.1338639,0.774866 -2.0519485,0.936351 -0.8637789,0.151932 -1.934974,0.142094 -2.6902003,-0.0247 -0.095142,-0.02101 -0.1729845,-0.04366 -0.1729845,-0.05033 0,-0.0067 0.024159,-0.0061 0.053685,0.001 0.3548508,0.08752 0.6533446,0.115722 1.3003628,0.122822 0.4472633,0.0049 0.6740415,-7.55e-4 0.6740415,-0.01695 0,-0.01487 0.013121,-0.01346 0.033666,0.0036 0.01944,0.01613 0.039407,0.01863 0.047252,0.0059 0.00747,-0.0121 0.062517,-0.02297 0.1223222,-0.02417 0.059804,-0.0012 0.1190683,-0.0086 0.1316969,-0.01637 0.012629,-0.0078 0.022962,-0.0051 0.022962,0.0059 0,0.01103 0.020686,0.02015 0.045968,0.02015 0.025282,0 0.040488,-0.0088 0.033791,-0.01969 -0.0067,-0.01081 0.015375,-0.01278 0.049051,-0.0043 0.033675,0.0085 0.115094,0.0026 0.1809307,-0.01335 0.065836,-0.01579 0.1492375,-0.03217 0.1853351,-0.03638 0.2834539,-0.03309 0.4116003,-0.06021 0.4116003,-0.08709 0,-0.01243 0.00879,-0.01719 0.019535,-0.01059 0.02478,0.01533 0.3077873,-0.05704 0.4905173,-0.125405 0.3675285,-0.137511 0.7816865,-0.398444 1.0634325,-0.670001 0.119254,-0.114943 0.207247,-0.267666 0.179804,-0.312072 -0.0076,-0.01233 -0.06162,-0.03636 -0.119998,-0.05337 l -0.106138,-0.03095 0.03718,-0.05307 c 0.05802,-0.08284 0.158731,-0.122396 0.323826,-0.127189 0.232348,-0.0068 0.306142,0.0055 0.342071,0.05681 0.01798,0.02567 0.04687,0.04195 0.06419,0.03617 0.03577,-0.01192 0.09157,0.03543 0.09157,0.0777 0,0.01559 0.01647,0.02179 0.03702,0.01391 0.02209,-0.0085 0.03088,-0.0042 0.02181,0.01037 -0.0084,0.01353 -0.0023,0.04011 0.01333,0.05904 0.03841,0.04628 0.04456,0.248992 0.0087,0.284905 -0.0224,0.02241 -0.05943,0.02231 -0.168105,-2.51e-4 -0.12917,-0.02699 -0.146039,-0.02531 -0.230479,0.02299 -0.05011,0.02867 -0.182438,0.132101 -0.294064,0.229852 -0.197658,0.173089 -0.33262,0.266179 -0.700453,0.483136 -0.332104,0.195884 -0.9739349,0.374607 -1.6484445,0.459021 -0.2824967,0.03535 -1.5307653,0.06684 -1.7515867,0.04417 z M 4.8963869,11.671712 C 4.870505,11.648017 4.7589165,11.54332 4.6484116,11.439077 4.5167129,11.314841 4.4707953,11.280858 4.5151302,11.34044 c 0.076262,0.102482 0.3695879,0.37322 0.4051163,0.373919 0.012758,2.52e-4 0.00202,-0.01895 -0.02386,-0.04264 z M 11.32132,10.886486 c -0.03609,-0.0055 -0.09514,-0.0055 -0.13123,0 -0.03609,0.0055 -0.0066,0.0099 0.06561,0.0099 0.07218,0 0.101702,-0.0045 0.06561,-0.0099 z m -5.4818056,1.305523 c -0.019684,-0.01273 -0.025053,-0.02312 -0.01193,-0.02312 0.013123,0 0.039965,0.01037 0.059649,0.02312 0.019685,0.01273 0.025053,0.02312 0.01193,0.02312 -0.013123,0 -0.039965,-0.01037 -0.059649,-0.02312 z m -0.214739,-0.08351 c -0.032808,-0.01877 -0.048913,-0.03409 -0.03579,-0.03409 0.013123,0 0.050703,0.01535 0.083509,0.03409 0.032808,0.01877 0.048913,0.03409 0.03579,0.03409 -0.013123,0 -0.050703,-0.01535 -0.083509,-0.03409 z m 2.3776205,-0.668418 c -0.022828,-0.01668 -0.086941,-0.03716 -0.1424732,-0.0455 -0.1048149,-0.01573 -0.1763794,-0.0855 -0.1436364,-0.140049 0.010677,-0.01779 0.00183,-0.01631 -0.023052,0.0039 -0.022203,0.01801 -0.04037,0.02274 -0.04037,0.01048 0,-0.01223 -0.016902,-0.04307 -0.037559,-0.06853 -0.020657,-0.02548 -0.03076,-0.03289 -0.022451,-0.01651 0.0083,0.01641 0.00373,0.02983 -0.010165,0.02983 -0.013897,0 -0.025268,-0.01611 -0.025268,-0.03579 0,-0.01969 0.012052,-0.03579 0.026781,-0.03579 0.019603,0 0.019491,-0.0088 -4.402e-4,-0.03277 -0.043539,-0.05246 -0.00777,-0.103697 0.070485,-0.100944 0.051107,0.0018 0.066937,0.01197 0.057408,0.03694 -0.00889,0.02329 0.0027,0.0201 0.035768,-0.0098 0.030338,-0.02745 0.080957,-0.04307 0.1332378,-0.0411 0.046373,0.0018 0.079331,-0.0049 0.073243,-0.01475 -0.00609,-0.0099 0.017628,-0.01635 0.052702,-0.01447 0.035076,0.002 0.083859,-0.0069 0.1084081,-0.01957 0.031364,-0.01617 0.039813,-0.01522 0.028416,0.0032 -0.00899,0.01457 -5.031e-4,0.02624 0.018992,0.02624 0.019365,0 0.039727,-0.01341 0.045248,-0.02983 0.00768,-0.02285 0.017941,-0.02332 0.043743,-0.002 0.033721,0.02775 0.1964618,0.01175 0.2562471,-0.0252 0.015393,-0.0095 0.027986,-0.0069 0.027986,0.0058 0,0.01268 0.021474,0.01741 0.04772,0.01059 0.02902,-0.0076 0.047719,-7.54e-4 0.047719,0.01751 0,0.01647 0.018648,0.04361 0.041439,0.06027 l 0.041438,0.0303 -0.041438,0.04579 c -0.022792,0.02519 -0.041439,0.05713 -0.041439,0.071 0,0.01386 -0.027773,0.0434 -0.061719,0.06564 -0.033946,0.02224 -0.055459,0.0467 -0.047805,0.05436 0.017331,0.01733 -0.1155542,0.09981 -0.1755645,0.108969 -0.024362,0.0037 -0.058763,0.01823 -0.076447,0.03225 -0.05193,0.04117 -0.2207786,0.0536 -0.2671873,0.01965 z m 0.5571435,-0.178603 c 0,-0.01313 0.011371,-0.02387 0.025268,-0.02387 0.013897,0 0.018632,0.0107 0.010521,0.02387 -0.00811,0.01313 -0.019481,0.02385 -0.025268,0.02385 -0.00578,0 -0.010521,-0.0107 -0.010521,-0.02385 z M 5.1595077,9.2728785 C 4.7940518,9.1517574 4.5084712,8.8395648 4.3594718,8.3982892 4.2823489,8.169883 4.2674129,7.6641613 4.3309329,7.4319641 4.3560625,7.3401047 4.3839973,7.2482812 4.3930118,7.227917 4.405693,7.199261 4.3647158,7.1699987 4.2118171,7.0985245 3.762694,6.8885766 3.2717058,6.6545436 3.2300099,6.6305391 3.1696351,6.595781 3.151165,6.6192465 3.0856448,6.8139428 2.912765,7.3276601 2.9529238,8.0549176 3.1781485,8.4891344 c 0.1382217,0.2664831 0.3750799,0.5382692 0.5914963,0.6787181 0.06232,0.040444 0.1083558,0.07849 0.1023005,0.084546 C 3.8658933,9.2584614 3.7497339,9.2090917 3.6138197,9.1427062 3.4108714,9.04358 3.3414115,8.9947909 3.2252012,8.8697278 2.9653378,8.5900727 2.8012558,8.2240779 2.7364381,7.7795143 2.6968128,7.5077358 2.7215879,7.1100866 2.7952536,6.8354676 2.8544402,6.614829 2.8606203,6.5414309 2.8076863,6.6878184 l -0.029866,0.082592 -0.05352,-0.063606 C 2.6948623,6.6718203 2.6402107,6.6276643 2.6028508,6.608677 2.5654903,6.5896919 2.4705007,6.5348664 2.3917635,6.4868462 2.3130267,6.4388261 2.1950049,6.3714615 2.1294946,6.3371482 2.0292226,6.2846266 2.0197891,6.2743226 2.0698454,6.2719921 c 0.048011,-0.00224 0.050271,-0.00479 0.011741,-0.013268 C 1.8342165,6.2042937 1.8241862,6.1316837 2.0093068,5.735536 2.2004661,5.3264659 2.4007299,5.0751563 2.6294515,4.9573225 2.7084265,4.9166305 2.7535743,4.9106565 2.9038403,4.9209775 3.1329013,4.9367145 3.3775371,5.0298571 3.7367012,5.2380589 4.1239914,5.4625679 4.481569,5.7288193 5.5770572,6.6083797 6.8686644,7.6453993 7.0057644,7.7345591 7.174571,7.647266 7.262064,7.602022 7.2931393,7.547686 7.3454709,7.3484492 l 0.040735,-0.1550874 0.00194,0.095439 c 0.00601,0.2967365 -0.1184822,0.7313809 -0.2530791,0.8836181 -0.069907,0.079069 -0.1978409,0.1182306 -0.4007986,0.1226859 -0.1049831,0.00226 -0.2093617,0.00568 -0.2319517,0.0075 -0.036204,0.00292 -0.04195,0.040605 -0.048475,0.3179181 -0.00504,0.4480455 0.056153,0.2372287 -0.0126,-0.053231 -0.00286,-0.2023114 -0.01133,-0.3617182 -0.01881,-0.3542392 -0.00748,0.00747 -0.034359,0.097849 -0.059733,0.2008196 -0.097987,0.3976567 -0.3027829,0.6838123 -0.5868183,0.8199518 -0.1414128,0.06778 -0.4673596,0.08843 -0.6163521,0.03905 z M 5.1351115,8.1078747 C 5.2786459,8.0424756 5.3459884,7.7823014 5.2552334,7.6437921 5.2047903,7.5668051 5.0674398,7.5083217 4.9814406,7.5272092 4.7479422,7.578496 4.6887689,7.9649932 4.8951483,8.0908437 c 0.084782,0.051699 0.1532125,0.056557 0.2399632,0.017031 z M 10.490884,9.2703553 C 10.217177,9.1695204 10.055805,9.0182642 9.9289021,8.7435977 9.841934,8.5553665 9.7904088,8.3588388 9.7633047,8.1119702 9.7486964,7.9788998 9.7430691,7.9653504 9.7236816,8.0165319 c -0.035342,0.093301 -0.053625,0.9496992 -0.022635,1.0604231 0.014482,0.051755 0.02199,0.098445 0.016673,0.1037583 -0.02958,0.029579 -0.083073,-0.267995 -0.086174,-0.4793702 -0.0039,-0.2662315 -0.012149,-0.3020217 -0.055806,-0.2423152 -0.026492,0.036228 -0.039672,0.033199 -0.149473,-0.034364 -0.06623,-0.040751 -0.1304688,-0.074094 -0.1427522,-0.074094 -0.012284,0 -0.043307,-0.016151 -0.068941,-0.035864 C 9.1889387,8.294984 9.1303863,8.2543467 9.0844563,8.2244 8.9344568,8.1266068 8.8234753,7.9326095 8.7729399,7.6798669 8.7483018,7.5566453 8.7282891,7.4075073 8.7284697,7.3484548 l 3.27e-4,-0.1073683 0.059572,0.1850464 c 0.1439587,0.4471673 0.3098015,0.373738 1.6560993,-0.7332795 0.641798,-0.5277291 0.72658,-0.5950228 1.1698,-0.9285061 0.51006,-0.3837734 0.834378,-0.5846235 1.180399,-0.7310186 0.320563,-0.1356253 0.494431,-0.1651217 0.641722,-0.1088685 0.235964,0.090122 0.456027,0.3585913 0.686329,0.8373168 0.179182,0.3724614 0.155659,0.4426215 -0.158919,0.4739972 -0.05249,0.00523 -0.02883,0.0081 0.05258,0.00636 0.08142,-0.00174 0.140466,0.00281 0.13123,0.010087 -0.07483,0.059018 -0.195042,0.1418426 -0.205876,0.1418426 -0.0074,0 -0.06255,0.037579 -0.122719,0.08351 -0.06017,0.04593 -0.119604,0.083509 -0.132071,0.083509 -0.01247,0 -0.06102,0.034895 -0.107888,0.077544 -0.04687,0.042649 -0.08932,0.072176 -0.09435,0.065614 -0.005,-0.00656 -0.02617,0.012407 -0.04701,0.042154 -0.02083,0.029746 -0.04594,0.049102 -0.05579,0.043016 -0.0098,-0.00609 -0.01449,0.023257 -0.01025,0.065215 0.0064,0.063653 1.5e-5,0.056531 -0.03826,-0.043015 -0.05774,-0.1501877 -0.05982,-0.1316839 -0.0098,0.087915 0.06105,0.2683427 0.05438,0.8778475 -0.01236,1.1289374 -0.07926,0.2981551 -0.243501,0.6075955 -0.424142,0.799082 -0.178995,0.1897455 -0.311032,0.2803041 -0.555942,0.3812974 -0.234453,0.096679 -0.259103,0.091079 -0.07574,-0.017207 0.08779,-0.051845 0.230416,-0.1727825 0.339135,-0.2875592 0.235529,-0.2486546 0.401924,-0.5663112 0.477406,-0.9113983 0.08826,-0.4035107 0.03354,-1.0119565 -0.116992,-1.3009107 l -0.0409,-0.078514 -0.440127,0.2138663 c -0.24207,0.1176255 -0.492253,0.2362889 -0.555965,0.2636969 -0.08876,0.038185 -0.111981,0.058783 -0.09933,0.088124 0.04796,0.111257 0.08445,0.3014582 0.0966,0.5035582 0.03417,0.5686634 -0.242789,1.2034027 -0.634876,1.4550058 -0.235429,0.1510725 -0.581726,0.2093576 -0.789378,0.1328566 z m 0.236443,-1.0492259 c 0.129833,-0.06714 0.164152,-0.279084 0.0683,-0.4217718 -0.04459,-0.066388 -0.07161,-0.082256 -0.149124,-0.0876 -0.199035,-0.01371 -0.339621,0.1230355 -0.306838,0.2984771 0.03595,0.1923669 0.224808,0.2951112 0.387663,0.2108943 z"
     id="path2-8"
     sodipodi:nodetypes="csssssssssssssssscscsssscsssssssssssssssssscssssssssscssssccssssssssssssssssssscssssssssscsssssssssssssssscssssssccsssssssssssssssssssscssssscssssssscssssscsssssssssssssssssssssssccsssssssssssssssssssssssssscsssssccssssssss" />
</svg>
