<?xml version="1.0" encoding="UTF-8" standalone="no"?>
<!-- Created with Inkscape (http://www.inkscape.org/) -->

<svg
   width="800"
   height="100.00017"
   viewBox="0 0 211.66667 26.458378"
   version="1.1"
   id="pv18logo"
   inkscape:version="1.4.2 (f4327f4, 2025-05-13)"
   sodipodi:docname="pv18logo.svg"
   xmlns:inkscape="http://www.inkscape.org/namespaces/inkscape"
   xmlns:sodipodi="http://sodipodi.sourceforge.net/DTD/sodipodi-0.dtd"
   xmlns="http://www.w3.org/2000/svg"
   xmlns:svg="http://www.w3.org/2000/svg">
  <sodipodi:namedview
     id="namedview1"
     pagecolor="#505050"
     bordercolor="#eeeeee"
     borderopacity="1"
     inkscape:showpageshadow="0"
     inkscape:pageopacity="0"
     inkscape:pagecheckerboard="0"
     inkscape:deskcolor="#505050"
     inkscape:document-units="mm"
     inkscape:zoom="0.71891835"
     inkscape:cx="456.24096"
     inkscape:cy="424.94395"
     inkscape:window-width="1920"
     inkscape:window-height="1009"
     inkscape:window-x="-8"
     inkscape:window-y="-8"
     inkscape:window-maximized="1"
     inkscape:current-layer="logo" />
  <defs
     id="defs1">
    <rect
       x="283.46451"
       y="-1455.118"
       width="1606.2992"
       height="737.00787"
       id="rect11-1-2" />
    <rect
       x="283.46451"
       y="-1455.118"
       width="1606.2992"
       height="737.00787"
       id="rect11" />
    <rect
       x="283.46451"
       y="-1455.118"
       width="1606.2992"
       height="737.00787"
       id="rect11-1" />
  </defs>
  <g
     inkscape:label="logo"
     inkscape:groupmode="layer"
     id="logo"
     transform="matrix(0.31127476,0,0,0.31127476,74.122297,-23.224974)">
    <path
       d="m 287.14738,-1430.7204 h 3.68254 v 3.6826 h -3.68254 z m 7.36508,36.8254 h 7.36507 v -11.0476 h -7.36507 v -3.6825 h 7.36507 v -3.6826 h -7.36507 v -3.6825 h 7.36507 v -7.3651 h -11.04761 v -3.6825 h 3.68254 v -3.6826 h 11.04761 v 3.6826 h 3.68254 v 3.6825 h 3.68254 v 3.6825 h -3.68254 v 29.4603 h 3.68254 v -29.4603 h 3.68254 v 25.7778 h 3.68253 v -29.4603 h -7.36507 v -3.6825 h 14.73015 v 33.1428 h -3.68254 v 3.6825 h -7.36507 v 3.6826 h -7.36508 v 7.3651 h -3.68254 v 3.6825 h -3.68254 v -14.7302 h -7.36507 z m 33.14284,-36.8254 h 3.68254 v 3.6826 h -3.68254 z m -36.82538,40.5079 h 3.68254 v 3.6826 h -3.68254 z m 47.87296,-40.5079 h 7.36507 v 7.3651 h -7.36507 z m -3.68254,36.8254 h 3.68254 v -14.7301 h -3.68254 v -3.6826 h 3.68254 v -3.6825 h 7.36507 v 3.6825 h 3.68254 v 3.6826 h -3.68254 v 14.7301 h 3.68254 v 3.6825 h -3.68254 v 3.6826 h -7.36507 v -3.6826 h -3.68254 z m 18.41263,0 h 3.68253 v -14.7301 h 3.68254 v -3.6826 h 3.68254 v 18.4127 h 7.36508 v -18.4127 h -7.36508 v -3.6825 h 11.04761 v 3.6825 h 7.36508 v 3.6826 h -3.68254 v 14.7301 h 3.68254 v 3.6825 h -3.68254 v 3.6826 h -7.36507 v -3.6826 h -3.68254 v 3.6826 h -7.36508 v -3.6826 h -7.36507 z m 36.82539,0 h 3.68254 v -14.7301 h -7.36507 v -3.6826 h 3.68253 v -3.6825 h 7.36508 v 3.6825 h 7.36508 v -3.6825 h 7.36507 v 3.6825 h 7.36508 v 3.6826 h -3.68254 v 14.7301 h 3.68254 v 3.6825 h -3.68254 v 3.6826 h -3.68254 v -3.6826 h -3.68254 v -18.4126 h -7.36507 v 14.7301 h 3.68254 v 3.6825 h -3.68254 v 3.6826 h -7.36508 v -3.6826 h -3.68254 z m 33.14285,0 h 3.68254 v -14.7301 h 3.68254 v -3.6826 h 3.68254 v 18.4127 h 7.36507 v -14.7301 h -3.68254 v -3.6826 h -3.68253 v -3.6825 h 11.04761 v 3.6825 h 7.36508 v 3.6826 h -3.68254 v 14.7301 h -3.68254 v 3.6825 h -7.36508 v 3.6826 h -7.36507 v -3.6826 h -7.36508 z m 51.55548,-36.8254 h 3.68254 v 3.6826 h -3.68254 z m 29.46031,3.6826 h 3.68253 v -3.6826 h 7.36508 v 3.6826 h 7.36508 v 3.6825 h -3.68254 v 25.7778 h -3.68254 v 3.6825 h -3.68254 v -29.4603 H 504.417 Z m 18.41269,-3.6826 h 3.68253 v 3.6826 h -3.68253 z m -36.82538,22.0953 h 7.36507 v -3.6826 h -7.36507 v -3.6825 h 7.36507 v -7.3651 h -14.73015 v -3.6825 h 7.36508 v -3.6826 h 11.04761 v 3.6826 h 3.68254 v 3.6825 h 3.68254 v 3.6825 h -3.68254 v 22.0953 h -7.36508 v -7.3651 h -7.36507 z m -3.68254,14.7301 H 504.417 v -25.7778 h 3.68253 v 25.7778 h 3.68254 v 3.6825 h -3.68254 v 3.6826 h -11.04761 v -3.6826 h -14.73015 z m -3.68254,3.6825 h 3.68254 v 3.6826 h -3.68254 z m 51.55548,-40.5079 h 7.36508 v 7.3651 h -7.36508 z m -3.68254,36.8254 h 3.68254 v -14.7301 h -3.68254 v -3.6826 h 3.68254 v -3.6825 h 7.36508 v 3.6825 h 3.68254 v 3.6826 h -3.68254 v 14.7301 h 3.68254 v 3.6825 h -3.68254 v 3.6826 h -7.36508 v -3.6826 h -3.68254 z m 22.09515,0 h 3.68254 v -14.7301 h -7.36507 v -3.6826 h 3.68253 v -3.6825 h 7.36508 v 3.6825 h 3.68254 v 18.4127 h 3.68254 v 3.6825 h -3.68254 v 3.6826 h -7.36508 v -3.6826 h -3.68254 z m 14.73016,-18.4127 h -3.68254 v -3.6825 h 11.04761 v 7.3651 h -7.36507 z m 11.04766,18.4127 h 3.68254 v -18.4127 h -3.68254 v -3.6825 h 3.68254 v -7.3651 h 3.68254 v -3.6825 h 3.68254 v 11.0476 h 7.36507 v 3.6825 h -7.36507 v 18.4127 h 7.36507 v 3.6825 h -3.68253 v 3.6826 h -7.36508 v -3.6826 h -7.36508 z m 25.77782,0 h 3.68254 v -14.7301 h -7.36508 v -3.6826 h 3.68254 v -3.6825 h 7.36507 v 3.6825 h 3.68254 v 18.4127 h 7.36508 v -14.7301 h -3.68254 v -3.6826 h 3.68254 v -3.6825 h 7.36507 v 3.6825 h 3.68254 v 3.6826 h -3.68254 v 14.7301 h 7.36508 v 3.6825 h -3.68254 v 3.6826 h -7.36507 v -3.6826 h -7.36508 v 3.6826 h -7.36508 v -3.6826 h -7.36507 z m 36.82536,0 h 3.68254 v -14.7301 h 3.68254 v -3.6826 h 3.68254 v 18.4127 h 7.36507 v -14.7301 h -3.68253 v -3.6826 h -3.68254 v -3.6825 h 11.04761 v 3.6825 h 7.36508 v 3.6826 h -3.68254 v 14.7301 h -3.68254 v 3.6825 h -7.36507 v 3.6826 h -7.36508 v -3.6826 h -7.36508 z m 55.23812,-25.7778 h 3.68253 v 7.3651 h -3.68253 z m 0,11.0477 h 3.68253 v 3.6825 h -3.68253 z m -18.41269,14.7301 h 3.68253 v -3.6825 h -3.68253 v -11.0476 h 3.68253 v -3.6826 h 3.68254 v -3.6825 h 7.36508 v 3.6825 h 3.68254 v 3.6826 h -11.04762 v 7.365 h 3.68254 v 3.6826 h -3.68254 v 3.6825 h 7.36508 v -7.3651 h -3.68254 v -3.6825 h 7.36508 v 3.6825 h 3.68253 v 7.3651 h -3.68253 v 3.6825 h -3.68254 v 3.6826 h -7.36508 v -3.6826 h -7.36507 z m -3.68254,3.6825 h 3.68254 v 3.6826 h -3.68254 z m 29.46032,-3.6825 h 3.68254 v -14.7301 h 3.68254 v -3.6826 h 3.68254 v 18.4127 h 7.36507 v -14.7301 h -3.68253 v -3.6826 h -3.68254 v -3.6825 h 11.04761 v 3.6825 h 7.36508 v 3.6826 h -3.68254 v 14.7301 h -3.68254 v 3.6825 h -7.36507 v 3.6826 h -7.36508 v -3.6826 h -7.36508 z m 51.55549,-18.4127 h 3.68253 v -3.6825 h 7.36508 v 25.7777 h -3.68254 v 3.6826 h -3.68254 v -22.0952 h -3.68253 z m 22.09517,-3.6825 h 3.68254 v 3.6825 h 3.68254 v -7.3651 h -7.36508 z m 7.36508,14.7301 h -3.68254 v -3.6825 h -3.68254 v 11.0476 h 7.36508 z m -14.73015,-3.6825 h 3.68254 v -7.3651 h -3.68254 v -7.3651 h 3.68254 v -3.6825 h 3.68253 v -3.6825 h 7.36508 v 3.6825 h 3.68254 v 3.6825 h 3.68254 v 7.3651 h -3.68254 v 7.3651 h 3.68254 v 11.0476 h -3.68254 v 3.6825 h -3.68254 v 3.6826 h -7.36508 v -3.6826 h -3.68253 v -3.6825 h -3.68254 z"
       id="0"
       style="font-size:77.3333px;font-family:'Jacquard 12';-inkscape-font-specification:'Jacquard 12, ';white-space:pre;fill:#800000;stroke-width:3.84;stroke-linejoin:bevel"
       inkscape:label="0"
       transform="matrix(1.3577468,0,0,1.3577598,-627.9984,2027.1871)"
       aria-label="Piano Virtuoso 18" />
    <path
       d="m 287.14738,-1430.7204 h 3.68254 v 3.6826 h -3.68254 z m 7.36508,36.8254 h 7.36507 v -11.0476 h -7.36507 v -3.6825 h 7.36507 v -3.6826 h -7.36507 v -3.6825 h 7.36507 v -7.3651 h -11.04761 v -3.6825 h 3.68254 v -3.6826 h 11.04761 v 3.6826 h 3.68254 v 3.6825 h 3.68254 v 3.6825 h -3.68254 v 29.4603 h 3.68254 v -29.4603 h 3.68254 v 25.7778 h 3.68253 v -29.4603 h -7.36507 v -3.6825 h 14.73015 v 33.1428 h -3.68254 v 3.6825 h -7.36507 v 3.6826 h -7.36508 v 7.3651 h -3.68254 v 3.6825 h -3.68254 v -14.7302 h -7.36507 z m 33.14284,-36.8254 h 3.68254 v 3.6826 h -3.68254 z m -36.82538,40.5079 h 3.68254 v 3.6826 h -3.68254 z m 47.87296,-40.5079 h 7.36507 v 7.3651 h -7.36507 z m -3.68254,36.8254 h 3.68254 v -14.7301 h -3.68254 v -3.6826 h 3.68254 v -3.6825 h 7.36507 v 3.6825 h 3.68254 v 3.6826 h -3.68254 v 14.7301 h 3.68254 v 3.6825 h -3.68254 v 3.6826 h -7.36507 v -3.6826 h -3.68254 z m 18.41263,0 h 3.68253 v -14.7301 h 3.68254 v -3.6826 h 3.68254 v 18.4127 h 7.36508 v -18.4127 h -7.36508 v -3.6825 h 11.04761 v 3.6825 h 7.36508 v 3.6826 h -3.68254 v 14.7301 h 3.68254 v 3.6825 h -3.68254 v 3.6826 h -7.36507 v -3.6826 h -3.68254 v 3.6826 h -7.36508 v -3.6826 h -7.36507 z m 36.82539,0 h 3.68254 v -14.7301 h -7.36507 v -3.6826 h 3.68253 v -3.6825 h 7.36508 v 3.6825 h 7.36508 v -3.6825 h 7.36507 v 3.6825 h 7.36508 v 3.6826 h -3.68254 v 14.7301 h 3.68254 v 3.6825 h -3.68254 v 3.6826 h -3.68254 v -3.6826 h -3.68254 v -18.4126 h -7.36507 v 14.7301 h 3.68254 v 3.6825 h -3.68254 v 3.6826 h -7.36508 v -3.6826 h -3.68254 z m 33.14285,0 h 3.68254 v -14.7301 h 3.68254 v -3.6826 h 3.68254 v 18.4127 h 7.36507 v -14.7301 h -3.68254 v -3.6826 h -3.68253 v -3.6825 h 11.04761 v 3.6825 h 7.36508 v 3.6826 h -3.68254 v 14.7301 h -3.68254 v 3.6825 h -7.36508 v 3.6826 h -7.36507 v -3.6826 h -7.36508 z m 51.55548,-36.8254 h 3.68254 v 3.6826 h -3.68254 z m 29.46031,3.6826 h 3.68253 v -3.6826 h 7.36508 v 3.6826 h 7.36508 v 3.6825 h -3.68254 v 25.7778 h -3.68254 v 3.6825 h -3.68254 v -29.4603 H 504.417 Z m 18.41269,-3.6826 h 3.68253 v 3.6826 h -3.68253 z m -36.82538,22.0953 h 7.36507 v -3.6826 h -7.36507 v -3.6825 h 7.36507 v -7.3651 h -14.73015 v -3.6825 h 7.36508 v -3.6826 h 11.04761 v 3.6826 h 3.68254 v 3.6825 h 3.68254 v 3.6825 h -3.68254 v 22.0953 h -7.36508 v -7.3651 h -7.36507 z m -3.68254,14.7301 H 504.417 v -25.7778 h 3.68253 v 25.7778 h 3.68254 v 3.6825 h -3.68254 v 3.6826 h -11.04761 v -3.6826 h -14.73015 z m -3.68254,3.6825 h 3.68254 v 3.6826 h -3.68254 z m 51.55548,-40.5079 h 7.36508 v 7.3651 h -7.36508 z m -3.68254,36.8254 h 3.68254 v -14.7301 h -3.68254 v -3.6826 h 3.68254 v -3.6825 h 7.36508 v 3.6825 h 3.68254 v 3.6826 h -3.68254 v 14.7301 h 3.68254 v 3.6825 h -3.68254 v 3.6826 h -7.36508 v -3.6826 h -3.68254 z m 22.09515,0 h 3.68254 v -14.7301 h -7.36507 v -3.6826 h 3.68253 v -3.6825 h 7.36508 v 3.6825 h 3.68254 v 18.4127 h 3.68254 v 3.6825 h -3.68254 v 3.6826 h -7.36508 v -3.6826 h -3.68254 z m 14.73016,-18.4127 h -3.68254 v -3.6825 h 11.04761 v 7.3651 h -7.36507 z m 11.04766,18.4127 h 3.68254 v -18.4127 h -3.68254 v -3.6825 h 3.68254 v -7.3651 h 3.68254 v -3.6825 h 3.68254 v 11.0476 h 7.36507 v 3.6825 h -7.36507 v 18.4127 h 7.36507 v 3.6825 h -3.68253 v 3.6826 h -7.36508 v -3.6826 h -7.36508 z m 25.77782,0 h 3.68254 v -14.7301 h -7.36508 v -3.6826 h 3.68254 v -3.6825 h 7.36507 v 3.6825 h 3.68254 v 18.4127 h 7.36508 v -14.7301 h -3.68254 v -3.6826 h 3.68254 v -3.6825 h 7.36507 v 3.6825 h 3.68254 v 3.6826 h -3.68254 v 14.7301 h 7.36508 v 3.6825 h -3.68254 v 3.6826 h -7.36507 v -3.6826 h -7.36508 v 3.6826 h -7.36508 v -3.6826 h -7.36507 z m 36.82536,0 h 3.68254 v -14.7301 h 3.68254 v -3.6826 h 3.68254 v 18.4127 h 7.36507 v -14.7301 h -3.68253 v -3.6826 h -3.68254 v -3.6825 h 11.04761 v 3.6825 h 7.36508 v 3.6826 h -3.68254 v 14.7301 h -3.68254 v 3.6825 h -7.36507 v 3.6826 h -7.36508 v -3.6826 h -7.36508 z m 55.23812,-25.7778 h 3.68253 v 7.3651 h -3.68253 z m 0,11.0477 h 3.68253 v 3.6825 h -3.68253 z m -18.41269,14.7301 h 3.68253 v -3.6825 h -3.68253 v -11.0476 h 3.68253 v -3.6826 h 3.68254 v -3.6825 h 7.36508 v 3.6825 h 3.68254 v 3.6826 h -11.04762 v 7.365 h 3.68254 v 3.6826 h -3.68254 v 3.6825 h 7.36508 v -7.3651 h -3.68254 v -3.6825 h 7.36508 v 3.6825 h 3.68253 v 7.3651 h -3.68253 v 3.6825 h -3.68254 v 3.6826 h -7.36508 v -3.6826 h -7.36507 z m -3.68254,3.6825 h 3.68254 v 3.6826 h -3.68254 z m 29.46032,-3.6825 h 3.68254 v -14.7301 h 3.68254 v -3.6826 h 3.68254 v 18.4127 h 7.36507 v -14.7301 h -3.68253 v -3.6826 h -3.68254 v -3.6825 h 11.04761 v 3.6825 h 7.36508 v 3.6826 h -3.68254 v 14.7301 h -3.68254 v 3.6825 h -7.36507 v 3.6826 h -7.36508 v -3.6826 h -7.36508 z m 51.55549,-18.4127 h 3.68253 v -3.6825 h 7.36508 v 25.7777 h -3.68254 v 3.6826 h -3.68254 v -22.0952 h -3.68253 z m 22.09517,-3.6825 h 3.68254 v 3.6825 h 3.68254 v -7.3651 h -7.36508 z m 7.36508,14.7301 h -3.68254 v -3.6825 h -3.68254 v 11.0476 h 7.36508 z m -14.73015,-3.6825 h 3.68254 v -7.3651 h -3.68254 v -7.3651 h 3.68254 v -3.6825 h 3.68253 v -3.6825 h 7.36508 v 3.6825 h 3.68254 v 3.6825 h 3.68254 v 7.3651 h -3.68254 v 7.3651 h 3.68254 v 11.0476 h -3.68254 v 3.6825 h -3.68254 v 3.6826 h -7.36508 v -3.6826 h -3.68253 v -3.6825 h -3.68254 z"
       id="1"
       style="font-size:77.3333px;font-family:'Jacquard 12';-inkscape-font-specification:'Jacquard 12, ';white-space:pre;fill:#ff0000;stroke-width:3.84;stroke-linejoin:bevel"
       inkscape:label="1"
       transform="matrix(1.3577586,0,0,1.3577598,-628.00177,2022.1871)"
       aria-label="Piano Virtuoso 18" />
    <path
       d="m 287.14738,-1430.7204 h 3.68254 v 3.6826 h -3.68254 z m 7.36508,36.8254 h 7.36507 v -11.0476 h -7.36507 v -3.6825 h 7.36507 v -3.6826 h -7.36507 v -3.6825 h 7.36507 v -7.3651 h -11.04761 v -3.6825 h 3.68254 v -3.6826 h 11.04761 v 3.6826 h 3.68254 v 3.6825 h 3.68254 v 3.6825 h -3.68254 v 29.4603 h 3.68254 v -29.4603 h 3.68254 v 25.7778 h 3.68253 v -29.4603 h -7.36507 v -3.6825 h 14.73015 v 33.1428 h -3.68254 v 3.6825 h -7.36507 v 3.6826 h -7.36508 v 7.3651 h -3.68254 v 3.6825 h -3.68254 v -14.7302 h -7.36507 z m 33.14284,-36.8254 h 3.68254 v 3.6826 h -3.68254 z m -36.82538,40.5079 h 3.68254 v 3.6826 h -3.68254 z m 47.87296,-40.5079 h 7.36507 v 7.3651 h -7.36507 z m -3.68254,36.8254 h 3.68254 v -14.7301 h -3.68254 v -3.6826 h 3.68254 v -3.6825 h 7.36507 v 3.6825 h 3.68254 v 3.6826 h -3.68254 v 14.7301 h 3.68254 v 3.6825 h -3.68254 v 3.6826 h -7.36507 v -3.6826 h -3.68254 z m 18.41263,0 h 3.68253 v -14.7301 h 3.68254 v -3.6826 h 3.68254 v 18.4127 h 7.36508 v -18.4127 h -7.36508 v -3.6825 h 11.04761 v 3.6825 h 7.36508 v 3.6826 h -3.68254 v 14.7301 h 3.68254 v 3.6825 h -3.68254 v 3.6826 h -7.36507 v -3.6826 h -3.68254 v 3.6826 h -7.36508 v -3.6826 h -7.36507 z m 36.82539,0 h 3.68254 v -14.7301 h -7.36507 v -3.6826 h 3.68253 v -3.6825 h 7.36508 v 3.6825 h 7.36508 v -3.6825 h 7.36507 v 3.6825 h 7.36508 v 3.6826 h -3.68254 v 14.7301 h 3.68254 v 3.6825 h -3.68254 v 3.6826 h -3.68254 v -3.6826 h -3.68254 v -18.4126 h -7.36507 v 14.7301 h 3.68254 v 3.6825 h -3.68254 v 3.6826 h -7.36508 v -3.6826 h -3.68254 z m 33.14285,0 h 3.68254 v -14.7301 h 3.68254 v -3.6826 h 3.68254 v 18.4127 h 7.36507 v -14.7301 h -3.68254 v -3.6826 h -3.68253 v -3.6825 h 11.04761 v 3.6825 h 7.36508 v 3.6826 h -3.68254 v 14.7301 h -3.68254 v 3.6825 h -7.36508 v 3.6826 h -7.36507 v -3.6826 h -7.36508 z m 51.55548,-36.8254 h 3.68254 v 3.6826 h -3.68254 z m 29.46031,3.6826 h 3.68253 v -3.6826 h 7.36508 v 3.6826 h 7.36508 v 3.6825 h -3.68254 v 25.7778 h -3.68254 v 3.6825 h -3.68254 v -29.4603 H 504.417 Z m 18.41269,-3.6826 h 3.68253 v 3.6826 h -3.68253 z m -36.82538,22.0953 h 7.36507 v -3.6826 h -7.36507 v -3.6825 h 7.36507 v -7.3651 h -14.73015 v -3.6825 h 7.36508 v -3.6826 h 11.04761 v 3.6826 h 3.68254 v 3.6825 h 3.68254 v 3.6825 h -3.68254 v 22.0953 h -7.36508 v -7.3651 h -7.36507 z m -3.68254,14.7301 H 504.417 v -25.7778 h 3.68253 v 25.7778 h 3.68254 v 3.6825 h -3.68254 v 3.6826 h -11.04761 v -3.6826 h -14.73015 z m -3.68254,3.6825 h 3.68254 v 3.6826 h -3.68254 z m 51.55548,-40.5079 h 7.36508 v 7.3651 h -7.36508 z m -3.68254,36.8254 h 3.68254 v -14.7301 h -3.68254 v -3.6826 h 3.68254 v -3.6825 h 7.36508 v 3.6825 h 3.68254 v 3.6826 h -3.68254 v 14.7301 h 3.68254 v 3.6825 h -3.68254 v 3.6826 h -7.36508 v -3.6826 h -3.68254 z m 22.09515,0 h 3.68254 v -14.7301 h -7.36507 v -3.6826 h 3.68253 v -3.6825 h 7.36508 v 3.6825 h 3.68254 v 18.4127 h 3.68254 v 3.6825 h -3.68254 v 3.6826 h -7.36508 v -3.6826 h -3.68254 z m 14.73016,-18.4127 h -3.68254 v -3.6825 h 11.04761 v 7.3651 h -7.36507 z m 11.04766,18.4127 h 3.68254 v -18.4127 h -3.68254 v -3.6825 h 3.68254 v -7.3651 h 3.68254 v -3.6825 h 3.68254 v 11.0476 h 7.36507 v 3.6825 h -7.36507 v 18.4127 h 7.36507 v 3.6825 h -3.68253 v 3.6826 h -7.36508 v -3.6826 h -7.36508 z m 25.77782,0 h 3.68254 v -14.7301 h -7.36508 v -3.6826 h 3.68254 v -3.6825 h 7.36507 v 3.6825 h 3.68254 v 18.4127 h 7.36508 v -14.7301 h -3.68254 v -3.6826 h 3.68254 v -3.6825 h 7.36507 v 3.6825 h 3.68254 v 3.6826 h -3.68254 v 14.7301 h 7.36508 v 3.6825 h -3.68254 v 3.6826 h -7.36507 v -3.6826 h -7.36508 v 3.6826 h -7.36508 v -3.6826 h -7.36507 z m 36.82536,0 h 3.68254 v -14.7301 h 3.68254 v -3.6826 h 3.68254 v 18.4127 h 7.36507 v -14.7301 h -3.68253 v -3.6826 h -3.68254 v -3.6825 h 11.04761 v 3.6825 h 7.36508 v 3.6826 h -3.68254 v 14.7301 h -3.68254 v 3.6825 h -7.36507 v 3.6826 h -7.36508 v -3.6826 h -7.36508 z m 55.23812,-25.7778 h 3.68253 v 7.3651 h -3.68253 z m 0,11.0477 h 3.68253 v 3.6825 h -3.68253 z m -18.41269,14.7301 h 3.68253 v -3.6825 h -3.68253 v -11.0476 h 3.68253 v -3.6826 h 3.68254 v -3.6825 h 7.36508 v 3.6825 h 3.68254 v 3.6826 h -11.04762 v 7.365 h 3.68254 v 3.6826 h -3.68254 v 3.6825 h 7.36508 v -7.3651 h -3.68254 v -3.6825 h 7.36508 v 3.6825 h 3.68253 v 7.3651 h -3.68253 v 3.6825 h -3.68254 v 3.6826 h -7.36508 v -3.6826 h -7.36507 z m -3.68254,3.6825 h 3.68254 v 3.6826 h -3.68254 z m 29.46032,-3.6825 h 3.68254 v -14.7301 h 3.68254 v -3.6826 h 3.68254 v 18.4127 h 7.36507 v -14.7301 h -3.68253 v -3.6826 h -3.68254 v -3.6825 h 11.04761 v 3.6825 h 7.36508 v 3.6826 h -3.68254 v 14.7301 h -3.68254 v 3.6825 h -7.36507 v 3.6826 h -7.36508 v -3.6826 h -7.36508 z m 51.55549,-18.4127 h 3.68253 v -3.6825 h 7.36508 v 25.7777 h -3.68254 v 3.6826 h -3.68254 v -22.0952 h -3.68253 z m 22.09517,-3.6825 h 3.68254 v 3.6825 h 3.68254 v -7.3651 h -7.36508 z m 7.36508,14.7301 h -3.68254 v -3.6825 h -3.68254 v 11.0476 h 7.36508 z m -14.73015,-3.6825 h 3.68254 v -7.3651 h -3.68254 v -7.3651 h 3.68254 v -3.6825 h 3.68253 v -3.6825 h 7.36508 v 3.6825 h 3.68254 v 3.6825 h 3.68254 v 7.3651 h -3.68254 v 7.3651 h 3.68254 v 11.0476 h -3.68254 v 3.6825 h -3.68254 v 3.6826 h -7.36508 v -3.6826 h -3.68253 v -3.6825 h -3.68254 z"
       id="2"
       style="font-size:77.3333px;font-family:'Jacquard 12';-inkscape-font-specification:'Jacquard 12, ';white-space:pre;fill:#ffcc00;stroke-width:3.84;stroke-linejoin:bevel"
       inkscape:label="2"
       transform="matrix(1.3577468,0,0,1.3577598,-627.99842,2017.1871)"
       aria-label="Piano Virtuoso 18" />
  </g>
</svg>
