<svg xmlns="http://www.w3.org/2000/svg" xmlns:xlink="http://www.w3.org/1999/xlink" xml:space="preserve" width="48" height="48" viewBox="0 0 12.7 12.7"><defs><radialGradient xlink:href="#a" id="b" cx="219.533" cy="57.426" r="79.385" fx="219.533" fy="57.426" gradientTransform="matrix(.36053 -.0044 .00767 .71677 28.567 106.904)" gradientUnits="userSpaceOnUse"/><linearGradient id="a"><stop offset="0" style="stop-color:#000;stop-opacity:1"/><stop offset="1" style="stop-color:#fff;stop-opacity:0"/></linearGradient></defs><g style="display:inline"><path d="M136.243 120.779c0 16.89-12.814 30.581-28.62 30.581s-28.619-13.692-28.619-30.581c0-15.289 57.239-15.28 57.239 0" style="display:inline;fill:#fff;stroke-width:.369602;stroke-linejoin:bevel" transform="translate(-15.976 -18.729)scale(.20764)"/><path d="M107.548 90.197c-1.669 0-3.337.088-4.325.262-9.556 1.687-17.209 7.667-21.367 16.697-.76 1.895-1.03 2.789-1.322 3.758-.292.97-.514 1.79-.756 2.8-.241 1.009-.377 1.593-.471 2.117-.227 1.26-.383 5.277-.26 6.681.087.98.114 1.051.456 1.203.392.173.442.323.576 1.698.315 3.249 1.318 7.032 2.503 9.44.597 1.212 2.192 3.812 2.34 3.812.036 0-.042-.169-.173-.374-.514-.805-1.458-3.285-1.977-5.2-.572-2.106-1.168-5.558-1.313-7.603l-.09-1.27.942.1c.517.054.976.159 1.018.233s.115.74.16 1.48c.372 6.055 2.18 12.977 4.062 15.556.519.71 1.466 1.61 1.728 1.64.114.013.307.069.43.124.304.137.289.069-.241-1.054-.998-2.116-2.167-6.681-2.647-10.334-.245-1.866-.563-5.26-.595-6.346l-.026-.884 1.07.034c.59.02 1.537.07 2.106.113l1.035.079.086 1.586c.565 10.38 2.058 17.736 4.151 20.45.568.736.701.617.179-.16-1.897-2.82-3.36-10.508-3.823-20.093l-.087-1.796 2.782.082c1.53.045 2.8.097 2.82.115.02.017.092 1.492.16 3.277.222 5.854.62 10.6 1.21 14.419.407 2.632.53 3.009 1.08 3.324.24.137.537.249.663.249s.25.076.277.17c.754 2.638 1.024 3.228 1.479 3.228.242 0 .242-.007.004-.484-.323-.642-.866-2.314-.77-2.58.05-.14.404-.063.721-.064.871-.004.854.09.558-3.14a182 182 0 0 1-.391-5.081c-.182-3.19-.412-10.839-.363-12.097l.041-1.087h4.198l.026 2.514c.06 5.813.312 18.013.38 18.376.076.409.576.789 1.037.789.353 0 .401.24.401 1.982 0 1.288.033 1.552.191 1.552.148 0 .19-.18.19-.796 0-.438.037-1.169.082-1.624.075-.768.109-.84.464-.972.21-.078.57-.142.8-.142.663 0 .777-.234.868-1.794.133-2.254.32-10.552.346-15.31l.023-4.394.307-.124c.17-.069 1.019-.125 1.889-.125h1.582l-.001 2.005c-.003 4.014-.341 11.566-.703 15.732-.31 3.56-.306 3.325-.05 3.47.125.073.438.132.694.132h.464l-.09.578c-.05.317-.247 1.051-.438 1.63-.192.58-.313 1.053-.27 1.052.322-.01.638-.625 1.034-2.017.266-.936.317-1.017.808-1.255.288-.14.623-.255.744-.257.536-.007.886-1.391 1.426-5.644.478-3.766.931-10.32.975-14.098l.015-1.321.4-.065c.219-.035 1.366-.094 2.548-.13l2.15-.067-.082 2.2c-.147 3.898-.578 8.166-1.174 11.617-.714 4.135-1.464 6.553-2.624 8.457l-.373.611.516-.611c1.98-2.346 3.546-9.993 4.067-19.867.061-1.171.147-2.19.19-2.263.042-.074.75-.173 1.572-.22a64 64 0 0 0 2.226-.163l.731-.077v.74c0 2.994-.946 9.64-1.858 13.05-.335 1.25-1.25 3.851-1.448 4.11-.057.075-.123.29-.148.476-.034.268-.036.313.192.297.317-.023.195-.033.647-.263.407-.207.66-.578.713-.578.135 0 .885-1.134 1.348-2.039.913-1.78 1.941-5.125 2.508-8.155.322-1.72.81-5.581.874-6.909.019-.398.092-.776.162-.838s.53-.155 1.024-.207l.896-.094-.1 1.272c-.346 4.333-1.423 8.927-2.769 11.81-.278.595-.465 1.082-.415 1.081.105-.002.948-1.26 1.452-2.167.372-.67 1.067-2.156 1.464-3.132.711-1.75 1.51-5.455 1.762-8.185.078-.839.117-.933.486-1.166.513-.323 1.203-.896.987-3.808-.4-9.03-2.019-11.006-4.944-15.995-4.342-7.407-11.376-12.012-19.686-13.479-.988-.174-2.656-.262-4.325-.262z" style="display:inline;fill:#000;stroke-width:.372713" transform="translate(-15.976 -18.729)scale(.20764)"/><path d="M107.548 90.197c-1.669 0-3.337.088-4.325.262-9.556 1.687-17.209 7.667-21.367 16.697-.76 1.895-1.03 2.789-1.322 3.758-.292.97-.514 1.79-.756 2.8-.241 1.009-.377 1.593-.471 2.117-.227 1.26-.383 5.277-.26 6.681.087.98.114 1.051.456 1.203.392.173.442.323.576 1.698.315 3.249 1.318 7.032 2.503 9.44.597 1.212 2.192 3.812 2.34 3.812.036 0-.042-.169-.173-.374-.514-.805-1.458-3.285-1.977-5.2-.572-2.106-1.168-5.558-1.313-7.603l-.09-1.27.942.1c.517.054.976.159 1.018.233s.115.74.16 1.48c.372 6.055 2.18 12.977 4.062 15.556.519.71 1.466 1.61 1.728 1.64.114.013.307.069.43.124.304.137.289.069-.241-1.054-.998-2.116-2.167-6.681-2.647-10.334-.245-1.866-.563-5.26-.595-6.346l-.026-.884 1.07.034c.59.02 1.537.07 2.106.113l1.035.079.086 1.586c.565 10.38 2.058 17.736 4.151 20.45.568.736.701.617.179-.16-1.897-2.82-3.36-10.508-3.823-20.093l-.087-1.796 2.782.082c1.53.045 2.8.097 2.82.115.02.017.092 1.492.16 3.277.222 5.854.62 10.6 1.21 14.419.407 2.632.53 3.009 1.08 3.324.24.137.537.249.663.249s.25.076.277.17c.754 2.638 1.024 3.228 1.479 3.228.242 0 .242-.007.004-.484-.323-.642-.866-2.314-.77-2.58.05-.14.404-.063.721-.064.871-.004.854.09.558-3.14a182 182 0 0 1-.391-5.081c-.182-3.19-.412-10.839-.363-12.097l.041-1.087h4.198l.026 2.514c.06 5.813.312 18.013.38 18.376.076.409.576.789 1.037.789.353 0 .401.24.401 1.982 0 1.288.033 1.552.191 1.552.148 0 .19-.18.19-.796 0-.438.037-1.169.082-1.624.075-.768.109-.84.464-.972.21-.078.57-.142.8-.142.663 0 .777-.234.868-1.794.133-2.254.32-10.552.346-15.31l.023-4.394.307-.124c.17-.069 1.019-.125 1.889-.125h1.582l-.001 2.005c-.003 4.014-.341 11.566-.703 15.732-.31 3.56-.306 3.325-.05 3.47.125.073.438.132.694.132h.464l-.09.578c-.05.317-.247 1.051-.438 1.63-.192.58-.313 1.053-.27 1.052.322-.01.638-.625 1.034-2.017.266-.936.317-1.017.808-1.255.288-.14.623-.255.744-.257.536-.007.886-1.391 1.426-5.644.478-3.766.931-10.32.975-14.098l.015-1.321.4-.065c.219-.035 1.366-.094 2.548-.13l2.15-.067-.082 2.2c-.147 3.898-.578 8.166-1.174 11.617-.714 4.135-1.464 6.553-2.624 8.457l-.373.611.516-.611c1.98-2.346 3.546-9.993 4.067-19.867.061-1.171.147-2.19.19-2.263.042-.074.75-.173 1.572-.22a64 64 0 0 0 2.226-.163l.731-.076v.739c0 2.994-.946 9.641-1.858 13.05-.335 1.25-1.25 3.852-1.448 4.11-.057.075-.123.29-.148.476-.034.268-.036.313.192.297.317-.023.195-.033.647-.263.407-.207.66-.578.713-.578.135 0 .885-1.134 1.348-2.038.913-1.78 1.941-5.125 2.508-8.155.322-1.722.81-5.582.874-6.91.019-.398.092-.775.162-.838s.53-.155 1.024-.207l.896-.094-.1 1.272c-.346 4.334-1.423 8.927-2.769 11.81-.278.595-.465 1.082-.415 1.081.105-.002.948-1.26 1.452-2.167.372-.67 1.067-2.156 1.464-3.132.711-1.75 1.51-5.455 1.762-8.184.078-.84.117-.934.486-1.167 1.633-5.544-1.4-14.936-3.957-19.803-4.357-7.398-11.376-12.012-19.686-13.479-.988-.174-2.656-.262-4.325-.262z" style="display:inline;opacity:1;fill:url(#b);stroke-width:.372713" transform="translate(-15.976 -18.729)scale(.20764)"/><path d="M136.25 123.558c-7.94 2.476-18.942 2.496-28.504 2.473s-26.412-.695-28.618-2.567l-.03-.93c2.649 2.141 19.225 2.547 28.767 2.637 9.543.09 17.742.082 28.213-2.266z" style="display:inline;fill:#a00;stroke-width:.378676;stroke-linejoin:bevel" transform="translate(-15.976 -18.729)scale(.20764)"/></g></svg>